<?xml version="1.0" encoding="UTF-8" standalone="no"?>
<!-- Created with Inkscape (http://www.inkscape.org/) -->

<svg
   xmlns:dc="http://purl.org/dc/elements/1.1/"
   xmlns:cc="http://creativecommons.org/ns#"
   xmlns:rdf="http://www.w3.org/1999/02/22-rdf-syntax-ns#"
   xmlns:svg="http://www.w3.org/2000/svg"
   xmlns="http://www.w3.org/2000/svg"
   xmlns:sodipodi="http://sodipodi.sourceforge.net/DTD/sodipodi-0.dtd"
   xmlns:inkscape="http://www.inkscape.org/namespaces/inkscape"
   width="64"
   height="64"
   id="svg2"
   version="1.1"
   inkscape:version="0.48.2 r9819"
   sodipodi:docname="ball.svg"
   inkscape:export-filename="C:\Users\Muffin\Documents\GitHub\Bolf\Assets\Art\GameAtlas\ball.png"
   inkscape:export-xdpi="90"
   inkscape:export-ydpi="90">
  <defs
     id="defs4" />
  <sodipodi:namedview
     id="base"
     pagecolor="#ffffff"
     bordercolor="#666666"
     borderopacity="1.0"
     inkscape:pageopacity="0.0"
     inkscape:pageshadow="2"
     inkscape:zoom="7.9195959"
     inkscape:cx="16.807825"
     inkscape:cy="45.207934"
     inkscape:document-units="px"
     inkscape:current-layer="layer1"
     showgrid="false"
     inkscape:window-width="1680"
     inkscape:window-height="988"
     inkscape:window-x="-8"
     inkscape:window-y="-8"
     inkscape:window-maximized="1" />
  <metadata
     id="metadata7">
    <rdf:RDF>
      <cc:Work
         rdf:about="">
        <dc:format>image/svg+xml</dc:format>
        <dc:type
           rdf:resource="http://purl.org/dc/dcmitype/StillImage" />
        <dc:title></dc:title>
      </cc:Work>
    </rdf:RDF>
  </metadata>
  <g
     inkscape:label="Layer 1"
     inkscape:groupmode="layer"
     id="layer1"
     transform="translate(0,-988.36218)">
    <path
       sodipodi:type="arc"
       style="fill:#333333;fill-opacity:1;stroke:#000000;stroke-width:1.18937314000000010;stroke-miterlimit:4;stroke-opacity:1;stroke-dasharray:none"
       id="path2985"
       sodipodi:cx="18.814091"
       sodipodi:cy="20.689709"
       sodipodi:rx="18.435284"
       sodipodi:ry="18.435284"
       d="m 37.249374,20.689709 a 18.435284,18.435284 0 1 1 -36.87056693,0 18.435284,18.435284 0 1 1 36.87056693,0 z"
       transform="matrix(1.6815581,0,0,1.6815581,0.36301392,985.57123)" />
    <path
       sodipodi:type="arc"
       style="fill:#4d4d4d;fill-opacity:1;stroke:none"
       id="path3755"
       sodipodi:cx="-25.127544"
       sodipodi:cy="23.972706"
       sodipodi:rx="14.520943"
       sodipodi:ry="14.520943"
       d="m -10.606602,23.972706 a 14.520943,14.520943 0 1 1 -29.041885,0 14.520943,14.520943 0 1 1 29.041885,0 z"
       transform="matrix(0.70434782,0,0,0.70434782,38.280389,990.52526)" />
    <g
       id="g3763"
       transform="translate(-0.45115034,-1.5060842)">
      <path
         sodipodi:type="arc"
         style="fill:#000000;fill-opacity:1;stroke:none"
         id="path3757"
         sodipodi:cx="-25.127544"
         sodipodi:cy="23.972706"
         sodipodi:rx="14.520943"
         sodipodi:ry="14.520943"
         d="m -10.606602,23.972706 c 0,8.019695 -6.501247,14.520943 -14.520942,14.520943 -8.019696,0 -14.520943,-6.501248 -14.520943,-14.520943 0,-8.019695 6.501247,-14.5209428 14.520943,-14.5209428 8.019695,0 14.520942,6.5012478 14.520942,14.5209428 z"
         transform="matrix(0.24782607,0,0,0.24782607,33.059438,1010.4976)" />
      <path
         transform="matrix(0.24782607,0,0,0.24782607,44.297385,1010.6239)"
         d="m -10.606602,23.972706 c 0,8.019695 -6.501247,14.520943 -14.520942,14.520943 -8.019696,0 -14.520943,-6.501248 -14.520943,-14.520943 0,-8.019695 6.501247,-14.5209428 14.520943,-14.5209428 8.019695,0 14.520942,6.5012478 14.520942,14.5209428 z"
         sodipodi:ry="14.520943"
         sodipodi:rx="14.520943"
         sodipodi:cy="23.972706"
         sodipodi:cx="-25.127544"
         id="path3759"
         style="fill:#000000;fill-opacity:1;stroke:none"
         sodipodi:type="arc" />
      <path
         sodipodi:type="arc"
         style="fill:#000000;fill-opacity:1;stroke:none"
         id="path3761"
         sodipodi:cx="-25.127544"
         sodipodi:cy="23.972706"
         sodipodi:rx="14.520943"
         sodipodi:ry="14.520943"
         d="m -10.606602,23.972706 c 0,8.019695 -6.501247,14.520943 -14.520942,14.520943 -8.019696,0 -14.520943,-6.501248 -14.520943,-14.520943 0,-8.019695 6.501247,-14.5209428 14.520943,-14.5209428 8.019695,0 14.520942,6.5012478 14.520942,14.5209428 z"
         transform="matrix(0.24782607,0,0,0.24782607,38.362739,1021.3568)" />
    </g>
  </g>
</svg>
