<?xml version="1.0" encoding="UTF-8" standalone="no"?>
<!-- Created with Inkscape (http://www.inkscape.org/) -->

<svg
   xmlns:dc="http://purl.org/dc/elements/1.1/"
   xmlns:cc="http://creativecommons.org/ns#"
   xmlns:rdf="http://www.w3.org/1999/02/22-rdf-syntax-ns#"
   xmlns:svg="http://www.w3.org/2000/svg"
   xmlns="http://www.w3.org/2000/svg"
   xmlns:sodipodi="http://sodipodi.sourceforge.net/DTD/sodipodi-0.dtd"
   xmlns:inkscape="http://www.inkscape.org/namespaces/inkscape"
   width="128"
   height="128"
   id="svg2"
   version="1.1"
   inkscape:version="0.48.2 r9819"
   sodipodi:docname="bumper_mega.svg"
   inkscape:export-filename="C:\Users\Muffin\Documents\GitHub\Bolf\Assets\Art\GameAtlas\bumper_mega.png"
   inkscape:export-xdpi="90"
   inkscape:export-ydpi="90">
  <defs
     id="defs4" />
  <sodipodi:namedview
     id="base"
     pagecolor="#ffffff"
     bordercolor="#666666"
     borderopacity="1.0"
     inkscape:pageopacity="0.0"
     inkscape:pageshadow="2"
     inkscape:zoom="3.959798"
     inkscape:cx="86.777113"
     inkscape:cy="80.159749"
     inkscape:document-units="px"
     inkscape:current-layer="layer1"
     showgrid="false"
     inkscape:window-width="1680"
     inkscape:window-height="988"
     inkscape:window-x="-8"
     inkscape:window-y="-8"
     inkscape:window-maximized="1" />
  <metadata
     id="metadata7">
    <rdf:RDF>
      <cc:Work
         rdf:about="">
        <dc:format>image/svg+xml</dc:format>
        <dc:type
           rdf:resource="http://purl.org/dc/dcmitype/StillImage" />
        <dc:title></dc:title>
      </cc:Work>
    </rdf:RDF>
  </metadata>
  <g
     inkscape:label="Layer 1"
     inkscape:groupmode="layer"
     id="layer1"
     transform="translate(0,-924.36218)">
    <path
       sodipodi:type="arc"
       style="fill:#66009b;fill-opacity:1;stroke:#000000;stroke-width:0.47656389999999998;stroke-miterlimit:4;stroke-opacity:1;stroke-dasharray:none"
       id="path2985"
       sodipodi:cx="36.870567"
       sodipodi:cy="33.569153"
       sodipodi:rx="14.773481"
       sodipodi:ry="14.773481"
       d="m 51.644049,33.569153 a 14.773481,14.773481 0 1 1 -29.546963,0 14.773481,14.773481 0 1 1 29.546963,0 z"
       transform="matrix(4.1967089,0,0,4.1967089,-91.735037,848.48222)" />
    <path
       style="fill:#ffffff;fill-opacity:0.32941176;stroke:none"
       d="m 63,932.16385 c -31.58314,0 -57.1983705,25.615 -57.1983705,57.19822 0,15.38363 6.1242445,29.31383 16.0054355,39.59243 -2.960713,-7.237 -4.633154,-15.1158 -4.633154,-23.4184 0,-34.24184 27.758348,-62.00005 62.000002,-62.00005 8.302681,0 16.181436,1.6724 23.418477,4.633 C 92.313908,938.28785 78.383745,932.16385 63,932.16385 z"
       id="path3755"
       inkscape:connector-curvature="0" />
    <g
       id="g3776"
       transform="translate(140,0)">
      <path
         sodipodi:type="star"
         style="fill:#fffdf3;fill-opacity:0.82941176;stroke:none"
         id="path3762"
         sodipodi:sides="5"
         sodipodi:cx="32.70369"
         sodipodi:cy="31.927656"
         sodipodi:r1="19.209713"
         sodipodi:r2="7.8772922"
         sodipodi:arg1="0.78539816"
         sodipodi:arg2="1.4173962"
         inkscape:flatsided="false"
         inkscape:rounded="0"
         inkscape:randomized="0"
         d="M 46.287008,45.510974 33.907334,39.712447 23.982662,49.043636 25.67186,35.478022 13.73048,28.922595 27.154136,26.337112 29.698628,12.954447 36.305707,24.922144 49.819669,23.206629 40.479412,33.188555 z"
         transform="matrix(2.7942826,0.34589126,-0.34589126,2.7942826,-18.241265,890.13223)"
         inkscape:transform-center-x="0.21027767"
         inkscape:transform-center-y="-1.7149064" />
      <path
         inkscape:transform-center-y="-1.3333632"
         inkscape:transform-center-x="0.16349384"
         transform="matrix(2.1725848,0.26893419,-0.26893419,2.1725848,-0.36651265,912.49844)"
         d="M 46.287008,45.510974 33.907334,39.712447 23.982662,49.043636 25.67186,35.478022 13.73048,28.922595 27.154136,26.337112 29.698628,12.954447 36.305707,24.922144 49.819669,23.206629 40.479412,33.188555 z"
         inkscape:randomized="0"
         inkscape:rounded="0"
         inkscape:flatsided="false"
         sodipodi:arg2="1.4173962"
         sodipodi:arg1="0.78539816"
         sodipodi:r2="7.8772922"
         sodipodi:r1="19.209713"
         sodipodi:cy="31.927656"
         sodipodi:cx="32.70369"
         sodipodi:sides="5"
         id="path3760"
         style="fill:#ffcc00;fill-opacity:1;stroke:none"
         sodipodi:type="star" />
    </g>
    <path
       style="fill:#fffdf3;fill-opacity:0.82941176;stroke:none"
       d="m 60.25,936.61218 -8.71875,27.1875 -26.1875,-15.5625 9.21875,25.8125 -24.4375,1.65625 20.84375,15.0625 -21.625,19.03127 29.15625,-0.8438 -6.6875,26.5 20.84375,-15.25 10.28125,23.8125 7.6875,-26.25 24.71875,15.5313 -8.96875,-27.2813 25.65625,-2.4062 -20.1875,-13.81252 21.09375,-17.59375 -30.375,0.0937 6.25,-27.875 -19.40625,15 -9.15625,-22.8125 z"
       id="path3790"
       inkscape:connector-curvature="0" />
    <path
       inkscape:transform-center-y="-1.3333632"
       inkscape:transform-center-x="0.16349384"
       transform="matrix(2.1725848,0.26893419,-0.26893419,2.1725848,-0.36651265,912.49844)"
       d="M 46.287008,45.510974 33.907334,39.712447 23.982662,49.043636 25.67186,35.478022 13.73048,28.922595 27.154136,26.337112 29.698628,12.954447 36.305707,24.922144 49.819669,23.206629 40.479412,33.188555 z"
       inkscape:randomized="0"
       inkscape:rounded="0"
       inkscape:flatsided="false"
       sodipodi:arg2="1.4173962"
       sodipodi:arg1="0.78539816"
       sodipodi:r2="7.8772922"
       sodipodi:r1="19.209713"
       sodipodi:cy="31.927656"
       sodipodi:cx="32.70369"
       sodipodi:sides="5"
       id="path3792"
       style="fill:#ffcc00;fill-opacity:1;stroke:none"
       sodipodi:type="star" />
    <path
       style="fill:#ffcc00;fill-opacity:1;stroke:none"
       d="m 82.3125,954.58093 -11.34375,8.75 3.625,9 3.71875,0 4,-17.75 z m -49.34375,2.96875 5.8125,16.21875 9.75,-0.65625 1.71875,-5.34375 -17.28125,-10.21875 z m 55.59375,34.96875 -5.1875,4.34375 1.6875,5.18752 15.3125,-1.4375 -11.8125,-8.09377 z m -54.1875,0.6875 -13.84375,12.18747 19,-0.5625 1.6875,-6.68747 -6.84375,-4.9375 z m 28.40625,19.62497 -6.71875,4.9063 6.15625,14.25 4.8125,-16.4688 -4.25,-2.6875 z"
       id="path3802"
       inkscape:connector-curvature="0" />
  </g>
</svg>
