<?xml version="1.0" encoding="UTF-8" standalone="no"?>
<!-- Created with Inkscape (http://www.inkscape.org/) -->

<svg
   xmlns:dc="http://purl.org/dc/elements/1.1/"
   xmlns:cc="http://creativecommons.org/ns#"
   xmlns:rdf="http://www.w3.org/1999/02/22-rdf-syntax-ns#"
   xmlns:svg="http://www.w3.org/2000/svg"
   xmlns="http://www.w3.org/2000/svg"
   xmlns:sodipodi="http://sodipodi.sourceforge.net/DTD/sodipodi-0.dtd"
   xmlns:inkscape="http://www.inkscape.org/namespaces/inkscape"
   width="64"
   height="64"
   id="svg2"
   version="1.1"
   inkscape:version="0.48.2 r9819"
   sodipodi:docname="bumper.svg"
   inkscape:export-filename="C:\Users\Muffin\Documents\GitHub\Bolf\Assets\Art\GameAtlas\bumper.png"
   inkscape:export-xdpi="90"
   inkscape:export-ydpi="90">
  <defs
     id="defs4" />
  <sodipodi:namedview
     id="base"
     pagecolor="#ffffff"
     bordercolor="#666666"
     borderopacity="1.0"
     inkscape:pageopacity="0.0"
     inkscape:pageshadow="2"
     inkscape:zoom="7.9195959"
     inkscape:cx="43.911094"
     inkscape:cy="30.696559"
     inkscape:document-units="px"
     inkscape:current-layer="layer1"
     showgrid="false"
     inkscape:window-width="1680"
     inkscape:window-height="988"
     inkscape:window-x="-8"
     inkscape:window-y="-8"
     inkscape:window-maximized="1" />
  <metadata
     id="metadata7">
    <rdf:RDF>
      <cc:Work
         rdf:about="">
        <dc:format>image/svg+xml</dc:format>
        <dc:type
           rdf:resource="http://purl.org/dc/dcmitype/StillImage" />
        <dc:title></dc:title>
      </cc:Work>
    </rdf:RDF>
  </metadata>
  <g
     inkscape:label="Layer 1"
     inkscape:groupmode="layer"
     id="layer1"
     transform="translate(0,-988.36218)">
    <path
       sodipodi:type="arc"
       style="fill:#9c0000;fill-opacity:1;stroke:#000000;stroke-width:0.95312816;stroke-miterlimit:4;stroke-opacity:1;stroke-dasharray:none"
       id="path2985"
       sodipodi:cx="36.870567"
       sodipodi:cy="33.569153"
       sodipodi:rx="14.773481"
       sodipodi:ry="14.773481"
       d="m 51.644049,33.569153 a 14.773481,14.773481 0 1 1 -29.546963,0 14.773481,14.773481 0 1 1 29.546963,0 z"
       transform="matrix(2.0983537,0,0,2.0983537,-45.367501,949.92223)" />
    <path
       style="fill:#ffffff;fill-opacity:0.32941176;stroke:none"
       d="m 31.999989,991.76301 c -15.791564,0 -28.5991743,12.80759 -28.5991743,28.59919 0,7.6918 3.062121,14.6569 8.0027143,19.7962 -1.4803557,-3.6185 -2.316575,-7.5579 -2.316575,-11.7092 0,-17.1209 13.879168,-31.00002 30.999989,-31.00002 4.151339,0 8.090715,0.83619 11.709235,2.31651 -5.13924,-4.94059 -12.104319,-8.00268 -19.796189,-8.00268 z"
       id="path3755"
       inkscape:connector-curvature="0" />
    <path
       inkscape:transform-center-y="-1.7149064"
       inkscape:transform-center-x="0.21027767"
       transform="matrix(1.3971408,0.17294557,-0.17294557,1.3971408,-8.6206282,970.74728)"
       d="M 46.287008,45.510974 33.907334,39.712447 23.982662,49.043636 25.67186,35.478022 13.73048,28.922595 27.154136,26.337112 29.698628,12.954447 36.305707,24.922144 49.819669,23.206629 40.479412,33.188555 z"
       inkscape:randomized="0"
       inkscape:rounded="0"
       inkscape:flatsided="false"
       sodipodi:arg2="1.4173962"
       sodipodi:arg1="0.78539816"
       sodipodi:r2="7.8772922"
       sodipodi:r1="19.209713"
       sodipodi:cy="31.927656"
       sodipodi:cx="32.70369"
       sodipodi:sides="5"
       id="path3762"
       style="fill:#fffdf3;fill-opacity:0.82941175;stroke:none"
       sodipodi:type="star" />
    <path
       sodipodi:type="star"
       style="fill:#ffcc00;fill-opacity:1;stroke:none"
       id="path3760"
       sodipodi:sides="5"
       sodipodi:cx="32.70369"
       sodipodi:cy="31.927656"
       sodipodi:r1="19.209713"
       sodipodi:r2="7.8772922"
       sodipodi:arg1="0.78539816"
       sodipodi:arg2="1.4173962"
       inkscape:flatsided="false"
       inkscape:rounded="0"
       inkscape:randomized="0"
       d="M 46.287008,45.510974 33.907334,39.712447 23.982662,49.043636 25.67186,35.478022 13.73048,28.922595 27.154136,26.337112 29.698628,12.954447 36.305707,24.922144 49.819669,23.206629 40.479412,33.188555 z"
       transform="matrix(1.086292,0.13446705,-0.13446705,1.086292,0.31674488,981.93034)"
       inkscape:transform-center-x="0.16349384"
       inkscape:transform-center-y="-1.3333632" />
  </g>
</svg>
