<?xml version="1.0" encoding="UTF-8" standalone="no"?>
<!-- Created with Inkscape (http://www.inkscape.org/) -->

<svg
   xmlns:dc="http://purl.org/dc/elements/1.1/"
   xmlns:cc="http://creativecommons.org/ns#"
   xmlns:rdf="http://www.w3.org/1999/02/22-rdf-syntax-ns#"
   xmlns:svg="http://www.w3.org/2000/svg"
   xmlns="http://www.w3.org/2000/svg"
   xmlns:sodipodi="http://sodipodi.sourceforge.net/DTD/sodipodi-0.dtd"
   xmlns:inkscape="http://www.inkscape.org/namespaces/inkscape"
   width="512"
   height="128"
   id="svg2"
   version="1.1"
   inkscape:version="0.48.2 r9819"
   sodipodi:docname="button_quit.svg"
   inkscape:export-filename="C:\Users\Muffin\Documents\GitHub\Bolf\Assets\Art\MenuAtlas\button_quit.png"
   inkscape:export-xdpi="90"
   inkscape:export-ydpi="90">
  <defs
     id="defs4" />
  <sodipodi:namedview
     id="base"
     pagecolor="#ffffff"
     bordercolor="#666666"
     borderopacity="1.0"
     inkscape:pageopacity="0.0"
     inkscape:pageshadow="2"
     inkscape:zoom="1.979899"
     inkscape:cx="285.59309"
     inkscape:cy="84.505902"
     inkscape:document-units="px"
     inkscape:current-layer="layer1"
     showgrid="false"
     inkscape:window-width="1680"
     inkscape:window-height="988"
     inkscape:window-x="-8"
     inkscape:window-y="-8"
     inkscape:window-maximized="1" />
  <metadata
     id="metadata7">
    <rdf:RDF>
      <cc:Work
         rdf:about="">
        <dc:format>image/svg+xml</dc:format>
        <dc:type
           rdf:resource="http://purl.org/dc/dcmitype/StillImage" />
        <dc:title></dc:title>
      </cc:Work>
    </rdf:RDF>
  </metadata>
  <g
     inkscape:label="Layer 1"
     inkscape:groupmode="layer"
     id="layer1"
     transform="translate(0,-924.36218)">
    <rect
       style="fill:#782121;fill-opacity:1;stroke:#000000;stroke-width:8;stroke-miterlimit:4;stroke-opacity:1;stroke-dasharray:none"
       id="rect3047"
       width="504"
       height="120"
       x="4"
       y="928.36218"
       ry="60" />
    <text
       xml:space="preserve"
       style="font-size:100px;font-style:normal;font-variant:normal;font-weight:bold;font-stretch:normal;text-align:center;line-height:125%;letter-spacing:0px;word-spacing:0px;text-anchor:middle;fill:#ffffff;fill-opacity:1;stroke:#000000;stroke-width:4;stroke-miterlimit:4;stroke-opacity:1;stroke-dasharray:none;font-family:Segoe UI;-inkscape-font-specification:Segoe UI Bold"
       x="255.31641"
       y="1015.6306"
       id="text3967"
       sodipodi:linespacing="125%"><tspan
         sodipodi:role="line"
         x="255.31641"
         y="1015.6306"
         id="tspan3969">quit</tspan></text>
    <path
       sodipodi:type="arc"
       style="fill:#782121;fill-opacity:1;stroke:#000000;stroke-width:1.81987798;stroke-linecap:round;stroke-linejoin:bevel;stroke-miterlimit:4;stroke-opacity:1;stroke-dasharray:none;stroke-dashoffset:0"
       id="path3005"
       sodipodi:cx="62.881996"
       sodipodi:cy="66.380692"
       sodipodi:rx="57.326157"
       sodipodi:ry="57.326157"
       d="m 120.20815,66.380692 c 0,31.660362 -25.665792,57.326158 -57.326154,57.326158 -31.660362,0 -57.3261565,-25.665796 -57.3261565,-57.326158 0,-31.660363 25.6657945,-57.3261571 57.3261565,-57.3261571 31.660362,0 57.326154,25.6657941 57.326154,57.3261571 z"
       transform="matrix(1.0989748,0,0,1.0989748,-73.391445,685.84004)" />
    <path
       sodipodi:type="arc"
       style="fill:#ffffff;fill-opacity:0.24468085;stroke:none"
       id="path3777"
       sodipodi:cx="46.088211"
       sodipodi:cy="45.420029"
       sodipodi:rx="30.683384"
       sodipodi:ry="30.052038"
       d="m 76.771595,45.420029 c 0,16.597282 -13.737419,30.052038 -30.683384,30.052038 -16.945965,0 -30.683384,-13.454756 -30.683384,-30.052038 0,-16.597283 13.737419,-30.052039 30.683384,-30.052039 16.945965,0 30.683384,13.454756 30.683384,30.052039 z"
       transform="matrix(1.1073736,-0.91279278,0.36945234,0.70765676,-94.308055,745.59228)" />
    <path
       transform="translate(-68.285715,694.79075)"
       sodipodi:type="arc"
       style="fill:#c83737;fill-opacity:1;stroke:#000000;stroke-width:2;stroke-linecap:round;stroke-linejoin:bevel;stroke-miterlimit:4;stroke-opacity:1;stroke-dasharray:none;stroke-dashoffset:0"
       id="path2992"
       sodipodi:cx="30.304577"
       sodipodi:cy="34.813427"
       sodipodi:rx="9.3439112"
       sodipodi:ry="9.3439112"
       d="m 39.648488,34.813427 c 0,5.1605 -4.183411,9.343911 -9.343911,9.343911 -5.1605,0 -9.343911,-4.183411 -9.343911,-9.343911 0,-5.1605 4.183411,-9.343911 9.343911,-9.343911 5.1605,0 9.343911,4.183411 9.343911,9.343911 z" />
    <path
       style="fill:#c83737;fill-opacity:1;stroke:#000000;stroke-width:2;stroke-linecap:butt;stroke-linejoin:miter;stroke-miterlimit:4;stroke-opacity:1;stroke-dasharray:none"
       d="m -23.712735,738.06421 -0.63135,-17.29886 62.629456,-2.02031 1.89404,20.20305 z"
       id="path2996"
       inkscape:connector-curvature="0"
       sodipodi:nodetypes="ccccc" />
    <path
       transform="translate(-68.664525,721.18099)"
       d="m 39.648488,34.813427 c 0,5.1605 -4.183411,9.343911 -9.343911,9.343911 -5.1605,0 -9.343911,-4.183411 -9.343911,-9.343911 0,-5.1605 4.183411,-9.343911 9.343911,-9.343911 5.1605,0 9.343911,4.183411 9.343911,9.343911 z"
       sodipodi:ry="9.3439112"
       sodipodi:rx="9.3439112"
       sodipodi:cy="34.813427"
       sodipodi:cx="30.304577"
       id="path3766"
       style="fill:#c83737;fill-opacity:1;stroke:#000000;stroke-width:2;stroke-linecap:round;stroke-linejoin:bevel;stroke-miterlimit:4;stroke-opacity:1;stroke-dasharray:none;stroke-dashoffset:0"
       sodipodi:type="arc" />
    <path
       sodipodi:nodetypes="ccccc"
       inkscape:connector-curvature="0"
       id="path3768"
       d="m -24.091545,764.45444 0.88389,-16.92005 61.114216,-2.39912 -1.13642,20.70813 z"
       style="fill:#c83737;fill-opacity:1;stroke:#000000;stroke-width:2;stroke-linecap:butt;stroke-linejoin:miter;stroke-miterlimit:4;stroke-opacity:1;stroke-dasharray:none" />
    <path
       sodipodi:type="arc"
       style="fill:#c83737;fill-opacity:1;stroke:#000000;stroke-width:2;stroke-linecap:round;stroke-linejoin:bevel;stroke-miterlimit:4;stroke-opacity:1;stroke-dasharray:none;stroke-dashoffset:0"
       id="path3770"
       sodipodi:cx="30.304577"
       sodipodi:cy="34.813427"
       sodipodi:rx="9.3439112"
       sodipodi:ry="9.3439112"
       d="m 39.648488,34.813427 c 0,5.1605 -4.183411,9.343911 -9.343911,9.343911 -5.1605,0 -9.343911,-4.183411 -9.343911,-9.343911 0,-5.1605 4.183411,-9.343911 9.343911,-9.343911 5.1605,0 9.343911,4.183411 9.343911,9.343911 z"
       transform="translate(-68.159445,749.97034)" />
    <path
       style="fill:#c83737;fill-opacity:1;stroke:#000000;stroke-width:2;stroke-linecap:butt;stroke-linejoin:miter;stroke-miterlimit:4;stroke-opacity:1;stroke-dasharray:none"
       d="m -23.586465,793.24377 1.13642,-16.4149 58.462576,-2.273 2.52538,18.4985 z"
       id="path3772"
       inkscape:connector-curvature="0"
       sodipodi:nodetypes="ccccc" />
    <path
       transform="matrix(0.13581236,-0.1201658,0.04045095,0.10003783,-48.657255,783.67257)"
       d="m 76.771595,45.420029 c 0,16.597282 -13.737419,30.052038 -30.683384,30.052038 -16.945965,0 -30.683384,-13.454756 -30.683384,-30.052038 0,-16.597283 13.737419,-30.052039 30.683384,-30.052039 16.945965,0 30.683384,13.454756 30.683384,30.052039 z"
       sodipodi:ry="30.052038"
       sodipodi:rx="30.683384"
       sodipodi:cy="45.420029"
       sodipodi:cx="46.088211"
       id="path3785"
       style="fill:#ffffff;fill-opacity:0.24468085;stroke:none"
       sodipodi:type="arc" />
    <path
       sodipodi:type="arc"
       style="fill:#ffffff;fill-opacity:0.24468085;stroke:none"
       id="path3787"
       sodipodi:cx="46.088211"
       sodipodi:cy="45.420029"
       sodipodi:rx="30.683384"
       sodipodi:ry="30.052038"
       d="m 76.771595,45.420029 c 0,16.597282 -13.737419,30.052038 -30.683384,30.052038 -16.945965,0 -30.683384,-13.454756 -30.683384,-30.052038 0,-16.597283 13.737419,-30.052039 30.683384,-30.052039 16.945965,0 30.683384,13.454756 30.683384,30.052039 z"
       transform="matrix(0.13581236,-0.1201658,0.04045095,0.10003783,-49.550115,754.744)" />
    <path
       transform="matrix(0.13581236,-0.1201658,0.04045095,0.10003783,-49.014405,728.31543)"
       d="m 76.771595,45.420029 c 0,16.597282 -13.737419,30.052038 -30.683384,30.052038 -16.945965,0 -30.683384,-13.454756 -30.683384,-30.052038 0,-16.597283 13.737419,-30.052039 30.683384,-30.052039 16.945965,0 30.683384,13.454756 30.683384,30.052039 z"
       sodipodi:ry="30.052038"
       sodipodi:rx="30.683384"
       sodipodi:cy="45.420029"
       sodipodi:cx="46.088211"
       id="path3789"
       style="fill:#ffffff;fill-opacity:0.24468085;stroke:none"
       sodipodi:type="arc" />
    <path
       sodipodi:type="arc"
       style="fill:#ffffff;fill-opacity:0.24468085;stroke:none"
       id="path3791"
       sodipodi:cx="46.088211"
       sodipodi:cy="45.420029"
       sodipodi:rx="30.683384"
       sodipodi:ry="30.052038"
       d="m 76.771595,45.420029 c 0,16.597282 -13.737419,30.052038 -30.683384,30.052038 -16.945965,0 -30.683384,-13.454756 -30.683384,-30.052038 0,-16.597283 13.737419,-30.052039 30.683384,-30.052039 16.945965,0 30.683384,13.454756 30.683384,30.052039 z"
       transform="matrix(0.56847946,-0.01716202,-0.0825227,0.1046761,-24.858975,721.75036)" />
    <path
       transform="matrix(0.56873444,0.00213606,-0.08602679,0.10181588,-22.032995,747.06229)"
       d="m 76.771595,45.420029 c 0,16.597282 -13.737419,30.052038 -30.683384,30.052038 -16.945965,0 -30.683384,-13.454756 -30.683384,-30.052038 0,-16.597283 13.737419,-30.052039 30.683384,-30.052039 16.945965,0 30.683384,13.454756 30.683384,30.052039 z"
       sodipodi:ry="30.052038"
       sodipodi:rx="30.683384"
       sodipodi:cy="45.420029"
       sodipodi:cx="46.088211"
       id="path3793"
       style="fill:#ffffff;fill-opacity:0.24468085;stroke:none"
       sodipodi:type="arc" />
    <path
       sodipodi:type="arc"
       style="fill:#ffffff;fill-opacity:0.24468085;stroke:none"
       id="path3795"
       sodipodi:cx="46.088211"
       sodipodi:cy="45.420029"
       sodipodi:rx="30.683384"
       sodipodi:ry="30.052038"
       d="m 76.771595,45.420029 c 0,16.597282 -13.737419,30.052038 -30.683384,30.052038 -16.945965,0 -30.683384,-13.454756 -30.683384,-30.052038 0,-16.597283 13.737419,-30.052039 30.683384,-30.052039 16.945965,0 30.683384,13.454756 30.683384,30.052039 z"
       transform="matrix(0.56847946,-0.01716202,-0.0825227,0.1046761,-23.251835,777.28607)" />
    <path
       style="fill:#ffffff;fill-opacity:1;stroke:#000000;stroke-width:4;stroke-linecap:butt;stroke-linejoin:bevel;stroke-miterlimit:4;stroke-opacity:1;stroke-dasharray:none"
       d="m 233.21428,819.50506 -1.42857,-24.64287 -50,-0.71429 L 192.5,760.93361 139.28571,804.1479 187.5,844.14786 181.78571,814.14789 z"
       id="path3000"
       inkscape:connector-curvature="0"
       sodipodi:nodetypes="cccccccc" />
    <path
       transform="matrix(1.1073736,-0.91279278,0.36945234,0.70765676,-18.627834,981.42229)"
       d="m 76.771595,45.420029 c 0,16.597282 -13.737419,30.052038 -30.683384,30.052038 -16.945965,0 -30.683384,-13.454756 -30.683384,-30.052038 0,-16.597283 13.737419,-30.052039 30.683384,-30.052039 16.945965,0 30.683384,13.454756 30.683384,30.052039 z"
       sodipodi:ry="30.052038"
       sodipodi:rx="30.683384"
       sodipodi:cy="45.420029"
       sodipodi:cx="46.088211"
       id="path3852"
       style="fill:#ffffff;fill-opacity:0.24468085;stroke:none"
       sodipodi:type="arc" />
    <g
       id="g3773">
      <path
         transform="translate(0,924.36218)"
         inkscape:connector-curvature="0"
         id="path3001"
         d="M 387.14286,108.35714 383.92857,28 434.28571,27.642857 440.71429,108 z"
         style="fill:#ffffff;stroke:#000000;stroke-width:4;stroke-linecap:butt;stroke-linejoin:miter;stroke-opacity:1;stroke-miterlimit:4;stroke-dasharray:none" />
      <path
         transform="matrix(1.2828427,0,0,1.2828427,-121.21831,904.32076)"
         d="m 430.35713,72.64286 a 3.5714285,3.5714285 0 1 1 -7.14285,0 3.5714285,3.5714285 0 1 1 7.14285,0 z"
         sodipodi:ry="3.5714285"
         sodipodi:rx="3.5714285"
         sodipodi:cy="72.64286"
         sodipodi:cx="426.78571"
         id="path3003"
         style="fill:#ffffff;fill-opacity:1;stroke:#000000;stroke-width:3.11807489;stroke-linecap:round;stroke-linejoin:bevel;stroke-miterlimit:4;stroke-opacity:1;stroke-dasharray:none;stroke-dashoffset:0"
         sodipodi:type="arc" />
    </g>
  </g>
</svg>
