<?xml version="1.0" encoding="UTF-8" standalone="no"?>
<!-- Created with Inkscape (http://www.inkscape.org/) -->

<svg
   xmlns:dc="http://purl.org/dc/elements/1.1/"
   xmlns:cc="http://creativecommons.org/ns#"
   xmlns:rdf="http://www.w3.org/1999/02/22-rdf-syntax-ns#"
   xmlns:svg="http://www.w3.org/2000/svg"
   xmlns="http://www.w3.org/2000/svg"
   xmlns:sodipodi="http://sodipodi.sourceforge.net/DTD/sodipodi-0.dtd"
   xmlns:inkscape="http://www.inkscape.org/namespaces/inkscape"
   width="64"
   height="64"
   id="svg2"
   version="1.1"
   inkscape:version="0.48.2 r9819"
   sodipodi:docname="button_small_blank.svg"
   inkscape:export-filename="C:\Users\Muffin\Documents\GitHub\Bolf\Assets\Art\MenuAtlas\button_small_blank.png"
   inkscape:export-xdpi="90"
   inkscape:export-ydpi="90">
  <defs
     id="defs4" />
  <sodipodi:namedview
     id="base"
     pagecolor="#ffffff"
     bordercolor="#666666"
     borderopacity="1.0"
     inkscape:pageopacity="0.0"
     inkscape:pageshadow="2"
     inkscape:zoom="3.959798"
     inkscape:cx="135.51207"
     inkscape:cy="61.219388"
     inkscape:document-units="px"
     inkscape:current-layer="layer1"
     showgrid="false"
     inkscape:window-width="1680"
     inkscape:window-height="988"
     inkscape:window-x="-8"
     inkscape:window-y="-8"
     inkscape:window-maximized="1" />
  <metadata
     id="metadata7">
    <rdf:RDF>
      <cc:Work
         rdf:about="">
        <dc:format>image/svg+xml</dc:format>
        <dc:type
           rdf:resource="http://purl.org/dc/dcmitype/StillImage" />
        <dc:title></dc:title>
      </cc:Work>
    </rdf:RDF>
  </metadata>
  <g
     inkscape:label="Layer 1"
     inkscape:groupmode="layer"
     id="layer1"
     transform="translate(0,-988.36218)">
    <rect
       style="fill:#cccccc;fill-opacity:1;stroke:#000000;stroke-width:4;stroke-miterlimit:4;stroke-opacity:1;stroke-dasharray:none"
       id="rect2985"
       width="60.000473"
       height="60.000473"
       x="1.9997637"
       y="990.36194"
       ry="3.1014967" />
    <path
       style="fill:#ffffff;fill-opacity:0.25098039;stroke:none"
       d="m 6.3154502,1041.8002 0,-44.28844 c 0.1438961,-1.74486 0.6782583,-2.53946 1.9009368,-2.765 l 44.599475,0 c 1.985735,0.14737 -0.510048,2.75414 -2.177437,2.59219 l -39.311415,0 c -1.6404019,-0.0987 -1.8187016,1.11295 -1.7281236,2.41937 l 0,39.27688 c -0.2503844,4.0167 -3.1981263,4.8842 -3.2834362,2.765 z"
       id="path3975"
       inkscape:connector-curvature="0"
       sodipodi:nodetypes="ccccccccc" />
    <path
       sodipodi:nodetypes="ccccccccc"
       inkscape:connector-curvature="0"
       id="path3977"
       d="m 57.382213,999.45592 0,44.28838 c -0.1439,1.7449 -0.678262,2.5395 -1.900936,2.765 l -44.599476,0 c -1.9857353,-0.1474 0.510048,-2.7541 2.177436,-2.5921 l 39.311412,0 c 1.640403,0.099 1.818706,-1.113 1.728125,-2.4194 l 0,-39.2769 c 0.250386,-4.01666 3.198127,-4.8842 3.283439,-2.76498 z"
       style="fill:#000000;fill-opacity:0.25098039;stroke:none" />
    <g
       id="g2990"
       transform="translate(140,0)">
      <rect
         style="fill:#cccccc;fill-opacity:1;stroke:#000000;stroke-width:4;stroke-miterlimit:4;stroke-opacity:1;stroke-dasharray:none"
         id="rect2992"
         width="124"
         height="124"
         x="2"
         y="926.36218"
         ry="6.4097095" />
      <path
         style="fill:#ffffff;fill-opacity:0.25098039;stroke:none"
         d="m 6.7857143,116.57143 0,-103.928573 C 7.0830971,9.0368521 8.1874371,7.3946763 10.714286,6.9285712 l 104.571424,0 c 4.10382,0.3045686 -1.05409,5.6918448 -4.5,5.3571428 l -93.642853,0 c -3.390138,-0.204051 -3.758621,2.300082 -3.571428,5 l 0,93.571426 c -0.517457,8.30107 -6.6094089,10.09402 -6.7857147,5.71429 z"
         id="path2994"
         inkscape:connector-curvature="0"
         transform="translate(0,924.36218)"
         sodipodi:nodetypes="ccccccccc" />
      <path
         sodipodi:nodetypes="ccccccccc"
         inkscape:connector-curvature="0"
         id="path2996"
         d="m 120.58946,936.88965 0,103.92855 c -0.29739,3.606 -1.40173,5.2482 -3.92857,5.7143 l -104.571426,0 c -4.1038204,-0.3046 1.05409,-5.6918 4.5,-5.3571 l 93.642846,0 c 3.39014,0.204 3.75863,-2.3001 3.57143,-5 l 0,-93.57145 c 0.51746,-8.3011 6.60941,-10.094 6.78572,-5.7143 z"
         style="fill:#000000;fill-opacity:0.25098039;stroke:none" />
    </g>
  </g>
</svg>
