<?xml version="1.0" encoding="UTF-8" standalone="no"?>
<!-- Created with Inkscape (http://www.inkscape.org/) -->

<svg
   xmlns:dc="http://purl.org/dc/elements/1.1/"
   xmlns:cc="http://creativecommons.org/ns#"
   xmlns:rdf="http://www.w3.org/1999/02/22-rdf-syntax-ns#"
   xmlns:svg="http://www.w3.org/2000/svg"
   xmlns="http://www.w3.org/2000/svg"
   xmlns:sodipodi="http://sodipodi.sourceforge.net/DTD/sodipodi-0.dtd"
   xmlns:inkscape="http://www.inkscape.org/namespaces/inkscape"
   width="128"
   height="128"
   id="svg2997"
   version="1.1"
   inkscape:version="0.48.2 r9819"
   sodipodi:docname="button_retry.svg"
   inkscape:export-filename="C:\Users\Muffin\Documents\GitHub\Bolf\Assets\Art\GameAtlas\button_retry.png"
   inkscape:export-xdpi="90"
   inkscape:export-ydpi="90">
  <defs
     id="defs2999" />
  <sodipodi:namedview
     id="base"
     pagecolor="#ffffff"
     bordercolor="#666666"
     borderopacity="1.0"
     inkscape:pageopacity="0.0"
     inkscape:pageshadow="2"
     inkscape:zoom="5.6"
     inkscape:cx="52.175066"
     inkscape:cy="62.507125"
     inkscape:document-units="px"
     inkscape:current-layer="layer1"
     showgrid="false"
     inkscape:window-width="1680"
     inkscape:window-height="988"
     inkscape:window-x="-8"
     inkscape:window-y="-8"
     inkscape:window-maximized="1" />
  <metadata
     id="metadata3002">
    <rdf:RDF>
      <cc:Work
         rdf:about="">
        <dc:format>image/svg+xml</dc:format>
        <dc:type
           rdf:resource="http://purl.org/dc/dcmitype/StillImage" />
        <dc:title></dc:title>
      </cc:Work>
    </rdf:RDF>
  </metadata>
  <g
     inkscape:label="Layer 1"
     inkscape:groupmode="layer"
     id="layer1"
     transform="translate(0,-924.36218)">
    <path
       sodipodi:type="arc"
       style="fill:#782121;fill-opacity:1;stroke:#000000;stroke-width:1.81987798000000000;stroke-linecap:round;stroke-linejoin:bevel;stroke-miterlimit:4;stroke-opacity:1;stroke-dasharray:none;stroke-dashoffset:0"
       id="path3005"
       sodipodi:cx="62.881996"
       sodipodi:cy="66.380692"
       sodipodi:rx="57.326157"
       sodipodi:ry="57.326157"
       d="m 120.20815,66.380692 a 57.326157,57.326157 0 1 1 -114.6523105,0 57.326157,57.326157 0 1 1 114.6523105,0 z"
       transform="matrix(1.0989748,0,0,1.0989748,-5.1057275,915.41147)" />
    <path
       sodipodi:type="arc"
       style="fill:#ffffff;fill-opacity:0.24468085;stroke:none"
       id="path3777"
       sodipodi:cx="46.088211"
       sodipodi:cy="45.420029"
       sodipodi:rx="30.683384"
       sodipodi:ry="30.052038"
       d="m 76.771595,45.420029 a 30.683384,30.052038 0 1 1 -61.366768,0 30.683384,30.052038 0 1 1 61.366768,0 z"
       transform="matrix(1.1073736,-0.91279278,0.36945234,0.70765676,-26.02234,975.16371)" />
    <path
       style="fill:#c83737;stroke:#000000;stroke-width:2;stroke-linecap:butt;stroke-linejoin:miter;stroke-opacity:1;stroke-miterlimit:4;stroke-dasharray:none"
       d="m 49.750013,1033.1693 10.354063,-40.40612 13.384521,13.88962 C 121.06249,941.0011 11.244037,956.42041 46.214479,993.77333 l -20.203051,14.64717 c -43.981636,-100.41408 142.451692,-81.66358 58.588847,12.3744 l 10.606602,13.3845 z"
       id="path3007"
       inkscape:connector-curvature="0"
       sodipodi:nodetypes="cccccc" />
    <path
       transform="matrix(0.28300766,-0.23327931,0.09441966,0.1808534,16.88706,963.9855)"
       d="m 76.771595,45.420029 a 30.683384,30.052038 0 1 1 -61.366768,0 30.683384,30.052038 0 1 1 61.366768,0 z"
       sodipodi:ry="30.052038"
       sodipodi:rx="30.683384"
       sodipodi:cy="45.420029"
       sodipodi:cx="46.088211"
       id="path3779"
       style="fill:#ffffff;fill-opacity:0.24468085;stroke:none"
       sodipodi:type="arc" />
    <path
       sodipodi:type="arc"
       style="fill:#ffffff;fill-opacity:0.24468085;stroke:none"
       id="path3781"
       sodipodi:cx="46.088211"
       sodipodi:cy="45.420029"
       sodipodi:rx="30.683384"
       sodipodi:ry="30.052038"
       d="m 76.771595,45.420029 a 30.683384,30.052038 0 1 1 -61.366768,0 30.683384,30.052038 0 1 1 61.366768,0 z"
       transform="matrix(0.07520113,-0.35896708,0.18672186,0.08220688,51.314008,1027.2918)" />
  </g>
</svg>
