<?xml version="1.0" encoding="UTF-8" standalone="no"?>
<!-- Created with Inkscape (http://www.inkscape.org/) -->

<svg
   xmlns:dc="http://purl.org/dc/elements/1.1/"
   xmlns:cc="http://creativecommons.org/ns#"
   xmlns:rdf="http://www.w3.org/1999/02/22-rdf-syntax-ns#"
   xmlns:svg="http://www.w3.org/2000/svg"
   xmlns="http://www.w3.org/2000/svg"
   xmlns:sodipodi="http://sodipodi.sourceforge.net/DTD/sodipodi-0.dtd"
   xmlns:inkscape="http://www.inkscape.org/namespaces/inkscape"
   width="256"
   height="256"
   id="svg2"
   version="1.1"
   inkscape:version="0.48.2 r9819"
   sodipodi:docname="New document 1">
  <defs
     id="defs4" />
  <sodipodi:namedview
     id="base"
     pagecolor="#ffffff"
     bordercolor="#666666"
     borderopacity="1.0"
     inkscape:pageopacity="0.0"
     inkscape:pageshadow="2"
     inkscape:zoom="3.959798"
     inkscape:cx="157.94032"
     inkscape:cy="80.249928"
     inkscape:document-units="px"
     inkscape:current-layer="layer1"
     showgrid="false"
     inkscape:window-width="1680"
     inkscape:window-height="988"
     inkscape:window-x="-8"
     inkscape:window-y="-8"
     inkscape:window-maximized="1" />
  <metadata
     id="metadata7">
    <rdf:RDF>
      <cc:Work
         rdf:about="">
        <dc:format>image/svg+xml</dc:format>
        <dc:type
           rdf:resource="http://purl.org/dc/dcmitype/StillImage" />
        <dc:title></dc:title>
      </cc:Work>
    </rdf:RDF>
  </metadata>
  <g
     inkscape:label="Layer 1"
     inkscape:groupmode="layer"
     id="layer1"
     transform="translate(0,-796.36218)">
    <path
       sodipodi:type="arc"
       style="fill:#efefef;fill-opacity:1;stroke:#c2c2c2;stroke-width:1.63667035;stroke-linecap:round;stroke-linejoin:round;stroke-miterlimit:4;stroke-opacity:1;stroke-dasharray:none;stroke-dashoffset:0"
       id="path3755"
       sodipodi:cx="131.07143"
       sodipodi:cy="124.21429"
       sodipodi:rx="103.92857"
       sodipodi:ry="103.92857"
       d="m 235,124.21429 a 103.92857,103.92857 0 1 1 -207.857147,0 103.92857,103.92857 0 1 1 207.857147,0 z"
       transform="matrix(1.2219931,0,0,1.2219931,227.83162,772.57318)" />
    <path
       style="fill:#efefef;fill-opacity:1;stroke:#c2c2c2;stroke-width:2;stroke-linecap:butt;stroke-linejoin:miter;stroke-miterlimit:4;stroke-opacity:1;stroke-dasharray:none"
       d="m 32.066575,872.19114 c -24.0884942,-18.25449 18.208816,-64.7774 47.450956,-46.74334 2.430312,-30.4017 51.332049,-32.84039 62.650359,-10.10778 11.80288,-27.84518 69.51147,-0.88584 59.18386,24.91596 29.75396,-13.4565 53.44067,52.13197 30.19961,58.07508 25.01962,1.00444 39.36564,69.41885 -9.38178,71.70249 31.66776,12.11632 -17.7138,70.32365 -40.81393,44.07105 -9.44596,43.3928 -70.15498,43.4467 -75.13585,10.07 -26.970852,23.9109 -73.091639,6.8374 -59.668108,-34.64682 C 3.8952985,1002.0176 0.82622922,945.78252 26.874428,928.98484 -3.3224656,920.76989 -5.2449629,878.99181 32.066575,872.19114 z"
       id="path2985"
       inkscape:connector-curvature="0"
       sodipodi:nodetypes="ccccccccccc" />
    <path
       style="fill:#e6e6e6;fill-opacity:1;stroke:none;stroke-width:2;stroke-linecap:butt;stroke-linejoin:miter;stroke-miterlimit:4;stroke-opacity:1;stroke-dasharray:none"
       d="m 239.375,104.5625 c 9.23583,24.44432 -24.10238,79.37296 -53.3125,70.375 0.0341,18.8867 -26.91764,62.75479 -61.78125,18.21875 -39.738779,22.50591 -58.669617,11.56648 -78.84375,3.90625 -9.377075,38.62358 34.674817,53.89455 60.78125,30.75 4.98087,33.3767 65.67904,33.3303 75.125,-10.0625 23.10013,26.2526 72.48026,-31.97743 40.8125,-44.09375 43.37377,-2.0319 36.81978,-56.42037 17.21875,-69.09375 z"
       transform="translate(0,796.36218)"
       id="path3757"
       inkscape:connector-curvature="0"
       sodipodi:nodetypes="cccccccc" />
    <path
       sodipodi:nodetypes="ccccccccccc"
       inkscape:connector-curvature="0"
       id="path3763"
       d="m 32.066575,872.19114 c -24.0884942,-18.25449 18.208816,-64.7774 47.450956,-46.74334 2.430312,-30.4017 51.332049,-32.84039 62.650359,-10.10778 11.80288,-27.84518 69.51147,-0.88584 59.18386,24.91596 29.75396,-13.4565 53.44067,52.13197 30.19961,58.07508 25.01962,1.00444 39.36564,69.41885 -9.38178,71.70249 31.66776,12.11632 -17.7138,70.32365 -40.81393,44.07105 -9.44596,43.3928 -70.15498,43.4467 -75.13585,10.07 -26.970852,23.9109 -73.091639,6.8374 -59.668108,-34.64682 C 3.8952985,1002.0176 0.82622922,945.78252 26.874428,928.98484 -3.3224656,920.76989 -5.2449629,878.99181 32.066575,872.19114 z"
       style="fill:none;fill-opacity:1;stroke:#c2c2c2;stroke-width:2;stroke-linecap:butt;stroke-linejoin:miter;stroke-miterlimit:4;stroke-opacity:1;stroke-dasharray:none" />
    <path
       style="fill:#f9f9f9;stroke:none;stroke-width:1px;stroke-linecap:butt;stroke-linejoin:miter;stroke-opacity:1"
       d="M 28.75,129.92857 C 3.7669151,120.28946 -0.05838455,87.777042 33.214286,79.035714 19.373237,94.062281 18.306837,111.09271 28.75,129.92857 z"
       id="path3765"
       inkscape:connector-curvature="0"
       transform="translate(0,796.36218)"
       sodipodi:nodetypes="ccc" />
    <path
       sodipodi:nodetypes="ccc"
       inkscape:connector-curvature="0"
       id="path3767"
       d="M 36.258328,869.1745 C 15.945188,854.03113 47.324539,812.68617 76.516843,830.88756 56.088629,831.13292 42.791368,848.65211 36.258328,869.1745 z"
       style="fill:#f9f9f9;stroke:none" />
    <path
       style="fill:#f9f9f9;stroke:none"
       d="m 85.385935,827.69035 c -3.936902,-25.0289 44.904575,-35.68841 53.052175,-2.26539 -21.1265,-16.29559 -41.476034,-10.40722 -53.052175,2.26539 z"
       id="path3769"
       inkscape:connector-curvature="0"
       sodipodi:nodetypes="ccc" />
    <path
       sodipodi:nodetypes="ccc"
       inkscape:connector-curvature="0"
       id="path3771"
       d="m 145.84026,821.03137 c 4.25756,-25.46654 58.96222,-11.05591 50.83605,22.37233 -13.18326,-23.75994 -36.08993,-27.21353 -50.83605,-22.37233 z"
       style="fill:#f9f9f9;stroke:none" />
    <path
       style="fill:#f9f9f9;stroke:none"
       d="M 50.999619,912.72132 C 28.787134,900.53318 64.752724,843.62856 96.182005,857.61719 75.984086,860.68577 54.631252,891.49256 50.999619,912.72132 z"
       id="path3773"
       inkscape:connector-curvature="0"
       sodipodi:nodetypes="ccc" />
    <path
       sodipodi:nodetypes="ccc"
       inkscape:connector-curvature="0"
       id="path3775"
       d="m 109.67272,879.05236 c -13.459404,-21.46601 45.67366,-53.6365 66.30467,-26.10755 -19.1335,-7.1611 -52.79016,9.33832 -66.30467,26.10755 z"
       style="fill:#f9f9f9;stroke:none" />
    <path
       sodipodi:nodetypes="ccc"
       inkscape:connector-curvature="0"
       id="path3777"
       d="m 99.506964,974.047 c -6.60646,24.46017 -54.029436,6.42959 -47.846693,-27.41203 7.744951,18.90471 26.360226,28.8888 47.846693,27.41203 z"
       style="fill:#e6e6e6;fill-opacity:1;stroke:none" />
    <path
       style="fill:#e6e6e6;fill-opacity:1;stroke:none"
       d="m 195.40858,868.99743 c 25.26084,1.95843 16.33226,51.90161 -18.06894,52.09835 17.14167,-11.11464 23.50253,-31.25788 18.06894,-52.09835 z"
       id="path3779"
       inkscape:connector-curvature="0"
       sodipodi:nodetypes="ccc" />
    <path
       style="fill:#e6e6e6;stroke:none;fill-opacity:1"
       d="m 188.8406,936.19227 c 8.08003,24.01372 -56.92659,41.50085 -70.56584,9.91838 16.93484,11.42729 53.51203,3.2352 70.56584,-9.91838 z"
       id="path3781"
       inkscape:connector-curvature="0"
       sodipodi:nodetypes="ccc" />
  </g>
</svg>
