<?xml version="1.0" encoding="UTF-8" standalone="no"?>
<!-- Created with Inkscape (http://www.inkscape.org/) -->

<svg
   xmlns:dc="http://purl.org/dc/elements/1.1/"
   xmlns:cc="http://creativecommons.org/ns#"
   xmlns:rdf="http://www.w3.org/1999/02/22-rdf-syntax-ns#"
   xmlns:svg="http://www.w3.org/2000/svg"
   xmlns="http://www.w3.org/2000/svg"
   xmlns:sodipodi="http://sodipodi.sourceforge.net/DTD/sodipodi-0.dtd"
   xmlns:inkscape="http://www.inkscape.org/namespaces/inkscape"
   width="96"
   height="96"
   id="svg2"
   version="1.1"
   inkscape:version="0.48.2 r9819"
   sodipodi:docname="hole.svg"
   inkscape:export-filename="C:\Users\Muffin\Documents\GitHub\Bolf\Assets\Art\GameAtlas\hole.png"
   inkscape:export-xdpi="90"
   inkscape:export-ydpi="90">
  <defs
     id="defs4" />
  <sodipodi:namedview
     id="base"
     pagecolor="#ffffff"
     bordercolor="#666666"
     borderopacity="1.0"
     inkscape:pageopacity="0.0"
     inkscape:pageshadow="2"
     inkscape:zoom="3.959798"
     inkscape:cx="41.599662"
     inkscape:cy="40.728652"
     inkscape:document-units="px"
     inkscape:current-layer="layer1"
     showgrid="false"
     inkscape:window-width="1680"
     inkscape:window-height="988"
     inkscape:window-x="-8"
     inkscape:window-y="-8"
     inkscape:window-maximized="1" />
  <metadata
     id="metadata7">
    <rdf:RDF>
      <cc:Work
         rdf:about="">
        <dc:format>image/svg+xml</dc:format>
        <dc:type
           rdf:resource="http://purl.org/dc/dcmitype/StillImage" />
        <dc:title></dc:title>
      </cc:Work>
    </rdf:RDF>
  </metadata>
  <g
     inkscape:label="Layer 1"
     inkscape:groupmode="layer"
     id="layer1"
     transform="translate(0,-956.36218)">
    <g
       id="g3760"
       transform="matrix(1.5,0,0,1.4999999,0,-526.18097)">
      <path
         transform="matrix(1.4157937,0,0,1.4157937,-6.4357546,982.66759)"
         d="m 49.750013,26.624355 c 0,12.48283 -10.119333,22.602164 -22.602163,22.602164 -12.48283,0 -22.6021633,-10.119334 -22.6021633,-22.602164 0,-12.48283 10.1193333,-22.602163 22.6021633,-22.602163 12.48283,0 22.602163,10.119333 22.602163,22.602163 z"
         sodipodi:ry="22.602163"
         sodipodi:rx="22.602163"
         sodipodi:cy="26.624355"
         sodipodi:cx="27.14785"
         id="path2985"
         style="fill:#221a1a;fill-opacity:1;stroke:none"
         sodipodi:type="arc" />
      <path
         inkscape:connector-curvature="0"
         id="path3755"
         d="m 32,988.36218 c -17.673112,0 -32,14.32692 -32,32.00002 0,3.4896 0.561149,6.8558 1.59375,10 4.197034,-12.7795 16.222726,-22 30.40625,-22 14.183524,0 26.209216,9.2205 30.40625,22 1.032601,-3.1442 1.59375,-6.5104 1.59375,-10 0,-17.6731 -14.326888,-32.00002 -32,-32.00002 z"
         style="fill:#372828;fill-opacity:1;stroke:none" />
    </g>
  </g>
</svg>
