<?xml version="1.0" encoding="UTF-8" standalone="no"?>
<!-- Created with Inkscape (http://www.inkscape.org/) -->

<svg
   xmlns:dc="http://purl.org/dc/elements/1.1/"
   xmlns:cc="http://creativecommons.org/ns#"
   xmlns:rdf="http://www.w3.org/1999/02/22-rdf-syntax-ns#"
   xmlns:svg="http://www.w3.org/2000/svg"
   xmlns="http://www.w3.org/2000/svg"
   xmlns:sodipodi="http://sodipodi.sourceforge.net/DTD/sodipodi-0.dtd"
   xmlns:inkscape="http://www.inkscape.org/namespaces/inkscape"
   width="32"
   height="32"
   id="svg4378"
   version="1.1"
   inkscape:version="0.48.2 r9819"
   sodipodi:docname="hose_pipe_bulge.svg"
   inkscape:export-filename="C:\Users\Muffin\Documents\GitHub\Bolf\Assets\Art\GameAtlas\hose_pipe_bulge.png"
   inkscape:export-xdpi="90"
   inkscape:export-ydpi="90">
  <defs
     id="defs4380" />
  <sodipodi:namedview
     id="base"
     pagecolor="#ffffff"
     bordercolor="#666666"
     borderopacity="1.0"
     inkscape:pageopacity="0.0"
     inkscape:pageshadow="2"
     inkscape:zoom="11.2"
     inkscape:cx="20.735817"
     inkscape:cy="32.465895"
     inkscape:document-units="px"
     inkscape:current-layer="layer1"
     showgrid="false"
     inkscape:window-width="1680"
     inkscape:window-height="988"
     inkscape:window-x="-8"
     inkscape:window-y="-8"
     inkscape:window-maximized="1" />
  <metadata
     id="metadata4383">
    <rdf:RDF>
      <cc:Work
         rdf:about="">
        <dc:format>image/svg+xml</dc:format>
        <dc:type
           rdf:resource="http://purl.org/dc/dcmitype/StillImage" />
        <dc:title></dc:title>
      </cc:Work>
    </rdf:RDF>
  </metadata>
  <g
     inkscape:label="Layer 1"
     inkscape:groupmode="layer"
     id="layer1"
     transform="translate(0,-1020.3622)">
    <g
       id="g4431"
       transform="translate(-60,0)">
      <g
         transform="translate(-755.42858,606.85713)"
         id="g4410">
        <rect
           style="fill:#006363;fill-opacity:1;stroke:#002121;stroke-width:2;stroke-linecap:round;stroke-linejoin:bevel;stroke-miterlimit:4;stroke-opacity:1;stroke-dasharray:none;stroke-dashoffset:0"
           id="rect3864"
           width="40.089287"
           height="12"
           x="750.10712"
           y="423.50507" />
        <path
           style="fill:#ffffff;fill-opacity:0.25098039;stroke:none"
           d="m 747.63393,424.91577 49.01786,0 0,2.7679 -49.10715,0 z"
           id="path4374"
           inkscape:connector-curvature="0" />
        <path
           inkscape:connector-curvature="0"
           id="path4376"
           d="m 746.29464,431.36217 49.01786,0 0,2.7679 -49.10714,0 z"
           style="fill:#000000;fill-opacity:0.25098039;stroke:none" />
      </g>
      <path
         transform="matrix(1.1313709,0,0,1.1313708,-0.78571444,1017.5869)"
         d="m 28.094868,16.595173 c 0,7.32233 -5.935922,13.258252 -13.258252,13.258252 -7.3223309,0 -13.2582526,-5.935922 -13.2582526,-13.258252 0,-7.3223306 5.9359217,-13.2582523 13.2582526,-13.2582523 7.32233,0 13.258252,5.9359217 13.258252,13.2582523 z"
         sodipodi:ry="13.258252"
         sodipodi:rx="13.258252"
         sodipodi:cy="16.595173"
         sodipodi:cx="14.836616"
         id="path4415"
         style="fill:#006363;fill-opacity:1;stroke:#002121;stroke-width:1.76776695;stroke-linecap:round;stroke-linejoin:bevel;stroke-miterlimit:4;stroke-opacity:1;stroke-dasharray:none;stroke-dashoffset:0"
         sodipodi:type="arc" />
    </g>
    <g
       id="g4438"
       transform="translate(0,40)">
      <path
         id="rect4419"
         transform="translate(0,1020.3622)"
         d="m 16,-39 c -6.1533877,0 -11.436765,3.698932 -13.75,9 l -7.5625,0 0,12 7.5625,0 c 2.313235,5.301068 7.5966123,9 13.75,9 6.153388,0 11.436765,-3.698932 13.75,-9 l 5.03125,0 0,-12 -5.03125,0 C 27.436765,-35.301068 22.153388,-39 16,-39 z"
         style="fill:#006363;fill-opacity:1;stroke:#002121;stroke-width:2;stroke-linecap:round;stroke-linejoin:bevel;stroke-miterlimit:4;stroke-opacity:1;stroke-dasharray:none;stroke-dashoffset:0"
         inkscape:connector-curvature="0" />
      <path
         sodipodi:nodetypes="ccccccccc"
         style="fill:#ffffff;fill-opacity:0.25098039;stroke:none"
         d="m -7.79465,991.7729 11.2670494,0 c 7.8955346,-10.93009 16.2008256,-11.12456 24.9381406,0 l 12.81267,0 0,2.7679 -14.81267,0 c -9.543204,-9.24578 -15.649351,-5.34107 -21.3800824,0 l -12.9143976,0 z"
         id="path4421"
         inkscape:connector-curvature="0" />
      <path
         sodipodi:nodetypes="ccccccccc"
         inkscape:connector-curvature="0"
         id="path4423"
         d="m -9.13394,998.2193 14.2050078,0 c 7.0245392,8.1819 15.1493992,5.6962 21.0034952,0 l 13.809357,0 0,2.7679 -11.978456,0 c -9.086878,11.2937 -16.940727,9.0241 -24.1805265,0 l -12.9481575,0 z"
         style="fill:#000000;fill-opacity:0.25098039;stroke:none" />
    </g>
  </g>
</svg>
