<?xml version="1.0" encoding="UTF-8" standalone="no"?>
<!-- Created with Inkscape (http://www.inkscape.org/) -->

<svg
   xmlns:dc="http://purl.org/dc/elements/1.1/"
   xmlns:cc="http://creativecommons.org/ns#"
   xmlns:rdf="http://www.w3.org/1999/02/22-rdf-syntax-ns#"
   xmlns:svg="http://www.w3.org/2000/svg"
   xmlns="http://www.w3.org/2000/svg"
   xmlns:sodipodi="http://sodipodi.sourceforge.net/DTD/sodipodi-0.dtd"
   xmlns:inkscape="http://www.inkscape.org/namespaces/inkscape"
   width="64"
   height="64"
   id="svg2"
   version="1.1"
   inkscape:version="0.48.2 r9819"
   sodipodi:docname="spinner_middle.svg"
   inkscape:export-filename="C:\Users\Muffin\Documents\GitHub\Bolf\Assets\Art\GameAtlas\spinner_middle.png"
   inkscape:export-xdpi="90"
   inkscape:export-ydpi="90">
  <defs
     id="defs4" />
  <sodipodi:namedview
     id="base"
     pagecolor="#ffffff"
     bordercolor="#666666"
     borderopacity="1.0"
     inkscape:pageopacity="0.0"
     inkscape:pageshadow="2"
     inkscape:zoom="2"
     inkscape:cx="146.66315"
     inkscape:cy="142.2638"
     inkscape:document-units="px"
     inkscape:current-layer="layer1"
     showgrid="false"
     inkscape:window-width="1680"
     inkscape:window-height="988"
     inkscape:window-x="-8"
     inkscape:window-y="-8"
     inkscape:window-maximized="1" />
  <metadata
     id="metadata7">
    <rdf:RDF>
      <cc:Work
         rdf:about="">
        <dc:format>image/svg+xml</dc:format>
        <dc:type
           rdf:resource="http://purl.org/dc/dcmitype/StillImage" />
        <dc:title></dc:title>
      </cc:Work>
    </rdf:RDF>
  </metadata>
  <g
     inkscape:label="Layer 1"
     inkscape:groupmode="layer"
     id="layer1"
     transform="translate(0,-988.36218)">
    <g
       transform="translate(-96.000001,96.000005)"
       id="g3905">
      <path
         sodipodi:type="arc"
         style="fill:#225500;fill-opacity:1;stroke:#000000;stroke-width:1.93548381;stroke-miterlimit:4;stroke-opacity:1;stroke-dasharray:none"
         id="path3907"
         sodipodi:cx="93.571426"
         sodipodi:cy="98.14286"
         sodipodi:rx="30"
         sodipodi:ry="30"
         d="m 123.57143,98.14286 c 0,16.56854 -13.43146,30 -30.000004,30 -16.568542,0 -30,-13.43146 -30,-30 0,-16.568542 13.431458,-30 30,-30 16.568544,0 30.000004,13.431458 30.000004,30 z"
         transform="matrix(1.0333333,0,0,1.0333333,31.309529,822.94789)" />
      <path
         transform="translate(0.73810768,795.1683)"
         d="m 127.14286,128.5 c 0.80758,0.80759 -0.69018,1.48704 -1.34226,1.34226 -1.76711,-0.39236 -2.05118,-2.6558 -1.34225,-4.02678 1.2681,-2.45235 4.56107,-2.73964 6.71129,-1.34225 3.15553,2.05073 3.44852,6.4922 1.34225,9.39581 -2.80732,3.87005 -8.4325,4.16608 -12.08033,1.34225 -4.59041,-3.55351 -4.88814,-10.37718 -1.34224,-14.76485 4.29455,-5.31405 12.32431,-5.61281 17.44936,-1.34224 6.03969,5.03271 6.33911,14.27299 1.34224,20.13388 -5.76909,6.76663 -16.22268,7.0665 -22.8184,1.34224 -7.49447,-6.50428 -7.79465,-18.1731 -1.34223,-25.50292 7.23864,-8.22294 20.12404,-8.52336 28.18743,-1.34223 8.95189,7.97242 9.25249,22.07538 1.34223,30.87195"
         sodipodi:t0="0"
         sodipodi:argument="-11.780972"
         sodipodi:radius="22.778883"
         sodipodi:revolution="3"
         sodipodi:expansion="1"
         sodipodi:cy="128.5"
         sodipodi:cx="127.14286"
         id="path3909"
         style="fill:none;stroke:#0d4711;stroke-width:6;stroke-linecap:round;stroke-linejoin:miter;stroke-miterlimit:4;stroke-opacity:1;stroke-dasharray:none"
         sodipodi:type="spiral" />
      <path
         sodipodi:type="spiral"
         style="fill:none;stroke:#bdf3c1;stroke-width:3;stroke-linecap:round;stroke-linejoin:miter;stroke-miterlimit:4;stroke-opacity:1;stroke-dasharray:none"
         id="path3911"
         sodipodi:cx="127.14286"
         sodipodi:cy="128.5"
         sodipodi:expansion="1"
         sodipodi:revolution="3"
         sodipodi:radius="22.778883"
         sodipodi:argument="-11.780972"
         sodipodi:t0="0"
         d="m 127.14286,128.5 c 0.80758,0.80759 -0.69018,1.48704 -1.34226,1.34226 -1.76711,-0.39236 -2.05118,-2.6558 -1.34225,-4.02678 1.2681,-2.45235 4.56107,-2.73964 6.71129,-1.34225 3.15553,2.05073 3.44852,6.4922 1.34225,9.39581 -2.80732,3.87005 -8.4325,4.16608 -12.08033,1.34225 -4.59041,-3.55351 -4.88814,-10.37718 -1.34224,-14.76485 4.29455,-5.31405 12.32431,-5.61281 17.44936,-1.34224 6.03969,5.03271 6.33911,14.27299 1.34224,20.13388 -5.76909,6.76663 -16.22268,7.0665 -22.8184,1.34224 -7.49447,-6.50428 -7.79465,-18.1731 -1.34223,-25.50292 7.23864,-8.22294 20.12404,-8.52336 28.18743,-1.34223 8.95189,7.97242 9.25249,22.07538 1.34223,30.87195"
         transform="translate(0.73810768,795.1683)" />
      <path
         inkscape:connector-curvature="0"
         id="path3913"
         d="m 128.40149,896.16449 c -15.79155,0 -28.59918,12.80759 -28.59918,28.59919 0,7.6918 3.06213,14.6569 8.00273,19.7962 -1.48037,-3.6185 -2.31659,-7.5579 -2.31659,-11.7092 0,-17.1209 13.87918,-31.00002 31,-31.00002 4.15134,0 8.09072,0.83619 11.70923,2.31651 -5.13924,-4.94059 -12.10432,-8.00268 -19.79619,-8.00268 z"
         style="fill:#ffffff;fill-opacity:0.32941176;stroke:none" />
    </g>
  </g>
</svg>
