<?xml version="1.0" encoding="UTF-8" standalone="no"?>
<!-- Created with Inkscape (http://www.inkscape.org/) -->

<svg
   xmlns:dc="http://purl.org/dc/elements/1.1/"
   xmlns:cc="http://creativecommons.org/ns#"
   xmlns:rdf="http://www.w3.org/1999/02/22-rdf-syntax-ns#"
   xmlns:svg="http://www.w3.org/2000/svg"
   xmlns="http://www.w3.org/2000/svg"
   xmlns:sodipodi="http://sodipodi.sourceforge.net/DTD/sodipodi-0.dtd"
   xmlns:inkscape="http://www.inkscape.org/namespaces/inkscape"
   width="32"
   height="32"
   id="svg2"
   version="1.1"
   inkscape:version="0.48.2 r9819"
   sodipodi:docname="sprinkler_head.svg"
   inkscape:export-filename="C:\Users\Muffin\Documents\GitHub\Bolf\Assets\Art\GameAtlas\sprinkler_head.png"
   inkscape:export-xdpi="90"
   inkscape:export-ydpi="90">
  <defs
     id="defs4" />
  <sodipodi:namedview
     id="base"
     pagecolor="#ffffff"
     bordercolor="#666666"
     borderopacity="1.0"
     inkscape:pageopacity="0.0"
     inkscape:pageshadow="2"
     inkscape:zoom="7.9195959"
     inkscape:cx="23.341607"
     inkscape:cy="27.084442"
     inkscape:document-units="px"
     inkscape:current-layer="layer1"
     showgrid="false"
     inkscape:window-width="1680"
     inkscape:window-height="988"
     inkscape:window-x="-8"
     inkscape:window-y="-8"
     inkscape:window-maximized="1" />
  <metadata
     id="metadata7">
    <rdf:RDF>
      <cc:Work
         rdf:about="">
        <dc:format>image/svg+xml</dc:format>
        <dc:type
           rdf:resource="http://purl.org/dc/dcmitype/StillImage" />
        <dc:title />
      </cc:Work>
    </rdf:RDF>
  </metadata>
  <g
     inkscape:label="Layer 1"
     inkscape:groupmode="layer"
     id="layer1"
     transform="translate(0,-1020.3622)">
    <path
       sodipodi:type="arc"
       style="fill:#ffffff;fill-opacity:1;stroke:none"
       id="path3755"
       sodipodi:cx="-25.127544"
       sodipodi:cy="23.972706"
       sodipodi:rx="14.520943"
       sodipodi:ry="14.520943"
       d="m -10.606602,23.972706 c 0,8.019695 -6.501247,14.520943 -14.520942,14.520943 -8.019696,0 -14.520943,-6.501248 -14.520943,-14.520943 0,-8.019695 6.501247,-14.5209428 14.520943,-14.5209428 8.019695,0 14.520942,6.5012478 14.520942,14.5209428 z"
       transform="matrix(0.70434782,0,0,0.70434782,-33.719612,999.31098)" />
    <g
       id="g3826"
       transform="matrix(2.1428548,0,0,2.1428548,-52.57137,-1150.1258)">
      <path
         transform="matrix(0.44545454,0,0,0.44545454,19.75,1006.1713)"
         d="m 43.214286,31.857143 c 0,8.678761 -7.035526,15.714286 -15.714286,15.714286 -8.67876,0 -15.714286,-7.035525 -15.714286,-15.714286 0,-8.67876 7.035526,-15.714285 15.714286,-15.714285 8.67876,0 15.714286,7.035525 15.714286,15.714285 z"
         sodipodi:ry="15.714286"
         sodipodi:rx="15.714286"
         sodipodi:cy="31.857143"
         sodipodi:cx="27.5"
         id="path3795"
         style="fill:#b2ab37;fill-opacity:1;stroke:#000000;stroke-width:2.09524083;stroke-linecap:round;stroke-linejoin:bevel;stroke-miterlimit:4;stroke-opacity:1;stroke-dasharray:none;stroke-dashoffset:0"
         sodipodi:type="arc" />
      <path
         sodipodi:type="arc"
         style="fill:#ffffff;fill-opacity:0.25098039;stroke:none"
         id="path3806"
         sodipodi:cx="-25.127544"
         sodipodi:cy="23.972706"
         sodipodi:rx="14.520943"
         sodipodi:ry="14.520943"
         d="m -10.606602,23.972706 c 0,8.019695 -6.501247,14.520943 -14.520942,14.520943 -8.019696,0 -14.520943,-6.501248 -14.520943,-14.520943 0,-8.019695 6.501247,-14.5209428 14.520943,-14.5209428 8.019695,0 14.520942,6.5012478 14.520942,14.5209428 z"
         transform="matrix(0.22474495,0,0,0.22474495,37.647289,1014.9744)" />
    </g>
  </g>
</svg>
