<?xml version="1.0" encoding="UTF-8" standalone="no"?>
<!-- Created with Inkscape (http://www.inkscape.org/) -->

<svg
   xmlns:dc="http://purl.org/dc/elements/1.1/"
   xmlns:cc="http://creativecommons.org/ns#"
   xmlns:rdf="http://www.w3.org/1999/02/22-rdf-syntax-ns#"
   xmlns:svg="http://www.w3.org/2000/svg"
   xmlns="http://www.w3.org/2000/svg"
   xmlns:sodipodi="http://sodipodi.sourceforge.net/DTD/sodipodi-0.dtd"
   xmlns:inkscape="http://www.inkscape.org/namespaces/inkscape"
   width="128"
   height="256"
   id="svg2"
   version="1.1"
   inkscape:version="0.48.2 r9819"
   sodipodi:docname="wheelbarrow.svg"
   inkscape:export-filename="C:\Users\Muffin\Documents\GitHub\Bolf\Assets\Art\GameAtlas\wheelbarrow.png"
   inkscape:export-xdpi="90"
   inkscape:export-ydpi="90">
  <defs
     id="defs4" />
  <sodipodi:namedview
     id="base"
     pagecolor="#ffffff"
     bordercolor="#666666"
     borderopacity="1.0"
     inkscape:pageopacity="0.0"
     inkscape:pageshadow="2"
     inkscape:zoom="2.8"
     inkscape:cx="86.05375"
     inkscape:cy="163.48637"
     inkscape:document-units="px"
     inkscape:current-layer="layer1"
     showgrid="false"
     inkscape:window-width="1680"
     inkscape:window-height="988"
     inkscape:window-x="-8"
     inkscape:window-y="-8"
     inkscape:window-maximized="1" />
  <metadata
     id="metadata7">
    <rdf:RDF>
      <cc:Work
         rdf:about="">
        <dc:format>image/svg+xml</dc:format>
        <dc:type
           rdf:resource="http://purl.org/dc/dcmitype/StillImage" />
        <dc:title></dc:title>
      </cc:Work>
    </rdf:RDF>
  </metadata>
  <g
     inkscape:label="Layer 1"
     inkscape:groupmode="layer"
     id="layer1"
     transform="translate(0,-796.36218)">
    <g
       transform="translate(-97.719416,-44.870539)"
       id="layer1-9"
       inkscape:label="Layer 1">
      <path
         transform="matrix(1.6815581,0,0,1.6815581,0.36301392,985.57123)"
         d="m 37.249374,20.689709 a 18.435284,18.435284 0 1 1 -36.87056693,0 18.435284,18.435284 0 1 1 36.87056693,0 z"
         sodipodi:ry="18.435284"
         sodipodi:rx="18.435284"
         sodipodi:cy="20.689709"
         sodipodi:cx="18.814091"
         id="path2985"
         style="fill:#e6e6e6;fill-opacity:1;stroke:#000000;stroke-width:1.18937314;stroke-miterlimit:4;stroke-opacity:1;stroke-dasharray:none"
         sodipodi:type="arc" />
      <path
         transform="matrix(0.70434782,0,0,0.70434782,38.280389,990.52526)"
         d="m -10.606602,23.972706 a 14.520943,14.520943 0 1 1 -29.041885,0 14.520943,14.520943 0 1 1 29.041885,0 z"
         sodipodi:ry="14.520943"
         sodipodi:rx="14.520943"
         sodipodi:cy="23.972706"
         sodipodi:cx="-25.127544"
         id="path3755"
         style="fill:#ffffff;fill-opacity:1;stroke:none"
         sodipodi:type="arc" />
      <g
         transform="translate(0,-80)"
         id="g2992">
        <path
           transform="matrix(1.6815581,0,0,1.6815581,0.36301392,985.57123)"
           d="m 37.249374,20.689709 a 18.435284,18.435284 0 1 1 -36.87056693,0 18.435284,18.435284 0 1 1 36.87056693,0 z"
           sodipodi:ry="18.435284"
           sodipodi:rx="18.435284"
           sodipodi:cy="20.689709"
           sodipodi:cx="18.814091"
           id="path2994"
           style="fill:#333333;fill-opacity:1;stroke:#000000;stroke-width:1.18937314;stroke-miterlimit:4;stroke-opacity:1;stroke-dasharray:none"
           sodipodi:type="arc" />
        <path
           transform="matrix(0.70434782,0,0,0.70434782,38.280389,990.52526)"
           d="m -10.606602,23.972706 a 14.520943,14.520943 0 1 1 -29.041885,0 14.520943,14.520943 0 1 1 29.041885,0 z"
           sodipodi:ry="14.520943"
           sodipodi:rx="14.520943"
           sodipodi:cy="23.972706"
           sodipodi:cx="-25.127544"
           id="path2996"
           style="fill:#4d4d4d;fill-opacity:1;stroke:none"
           sodipodi:type="arc" />
      </g>
      <g
         transform="translate(-0.45115,-81.506084)"
         id="g3763">
        <path
           transform="matrix(0.24782607,0,0,0.24782607,33.059438,1010.4976)"
           d="m -10.606602,23.972706 a 14.520943,14.520943 0 1 1 -29.041885,0 14.520943,14.520943 0 1 1 29.041885,0 z"
           sodipodi:ry="14.520943"
           sodipodi:rx="14.520943"
           sodipodi:cy="23.972706"
           sodipodi:cx="-25.127544"
           id="path3757"
           style="fill:#000000;fill-opacity:1;stroke:none"
           sodipodi:type="arc" />
        <path
           sodipodi:type="arc"
           style="fill:#000000;fill-opacity:1;stroke:none"
           id="path3759"
           sodipodi:cx="-25.127544"
           sodipodi:cy="23.972706"
           sodipodi:rx="14.520943"
           sodipodi:ry="14.520943"
           d="m -10.606602,23.972706 a 14.520943,14.520943 0 1 1 -29.041885,0 14.520943,14.520943 0 1 1 29.041885,0 z"
           transform="matrix(0.24782607,0,0,0.24782607,44.297385,1010.6239)" />
        <path
           transform="matrix(0.24782607,0,0,0.24782607,38.362739,1021.3568)"
           d="m -10.606602,23.972706 a 14.520943,14.520943 0 1 1 -29.041885,0 14.520943,14.520943 0 1 1 29.041885,0 z"
           sodipodi:ry="14.520943"
           sodipodi:rx="14.520943"
           sodipodi:cy="23.972706"
           sodipodi:cx="-25.127544"
           id="path3761"
           style="fill:#000000;fill-opacity:1;stroke:none"
           sodipodi:type="arc" />
      </g>
    </g>
    <rect
       style="fill:#333333;fill-opacity:1;stroke:#484848;stroke-width:2;stroke-linecap:round;stroke-linejoin:bevel;stroke-miterlimit:4;stroke-opacity:1;stroke-dasharray:none;stroke-dashoffset:0"
       id="rect3027"
       width="19.285715"
       height="50"
       x="54.35714"
       y="801.71936"
       ry="8.2142859" />
    <g
       id="g3882"
       transform="translate(-33.32796,4)">
      <g
         id="g3872">
        <path
           style="fill:#808080;stroke:#353535;stroke-width:2;stroke-linecap:butt;stroke-linejoin:miter;stroke-miterlimit:4;stroke-opacity:1;stroke-dasharray:none"
           d="M 64.642857,175.28571 47.5,209.21429 l 0,26.42857 7.5,0 0,-26.42857 15.714286,-30"
           id="path3868"
           inkscape:connector-curvature="0"
           transform="translate(0,796.36218)" />
        <rect
           style="fill:#930000;fill-opacity:1;stroke:#3e0000;stroke-width:2;stroke-linecap:round;stroke-linejoin:bevel;stroke-miterlimit:4;stroke-opacity:1;stroke-dasharray:none;stroke-dashoffset:0"
           id="rect3870"
           width="14.142136"
           height="28.789347"
           x="43.941635"
           y="1013.2188"
           ry="3.7880719" />
      </g>
      <g
         transform="matrix(-1,0,0,1,194.65592,0)"
         id="g3876">
        <path
           transform="translate(0,796.36218)"
           inkscape:connector-curvature="0"
           id="path3878"
           d="M 64.642857,175.28571 47.5,209.21429 l 0,26.42857 7.5,0 0,-26.42857 15.714286,-30"
           style="fill:#808080;stroke:#353535;stroke-width:2;stroke-linecap:butt;stroke-linejoin:miter;stroke-miterlimit:4;stroke-opacity:1;stroke-dasharray:none" />
        <rect
           ry="3.7880719"
           y="1013.2188"
           x="43.941635"
           height="28.789347"
           width="14.142136"
           id="rect3880"
           style="fill:#930000;fill-opacity:1;stroke:#3e0000;stroke-width:2;stroke-linecap:round;stroke-linejoin:bevel;stroke-miterlimit:4;stroke-opacity:1;stroke-dasharray:none;stroke-dashoffset:0" />
      </g>
    </g>
    <path
       style="fill:#930000;fill-opacity:1;stroke:#3e0000;stroke-width:1.99999988;stroke-linecap:round;stroke-linejoin:bevel;stroke-miterlimit:4;stroke-opacity:1;stroke-dasharray:none;stroke-dashoffset:0"
       d="m 64,821.36218 c -32.119915,0 -58.229837,24.2428 -58.96875,54.40625 l -0.03125,0 0,1.3125 0,110.9375 118,0 0,-110.9375 0,-1.3125 -0.0312,0 C 122.22984,845.60498 96.11991,821.36218 64,821.36218 z"
       id="rect3023"
       inkscape:connector-curvature="0" />
    <path
       inkscape:connector-curvature="0"
       id="path3851"
       d="m 5,987.83093 54.0625,-73.96875 5,-52.15625 0.625,-40.3125 c -0.23179,-0.003 -0.45507,-0.0312 -0.6875,-0.0312 -32.11991,0 -58.22984,24.2428 -58.96875,54.40625 l -0.0312,0 0,1.3125 0,110.75 z"
       style="fill:#660000;fill-opacity:1;stroke:#3e0000;stroke-width:1.99999988000000010;stroke-linecap:round;stroke-linejoin:bevel;stroke-miterlimit:4;stroke-opacity:1;stroke-dasharray:none;stroke-dashoffset:0" />
    <path
       id="path3866"
       d="m 64.28125,821.36218 0.5,51.4375 13.5625,21.40625 43.78125,-26.1875 c -4.57348,-26.3675 -28.65983,-46.52612 -57.84375,-46.65625 z"
       style="fill:#720000;fill-opacity:1;stroke:#3e0000;stroke-width:1.99999988000000010;stroke-linecap:round;stroke-linejoin:bevel;stroke-miterlimit:4;stroke-opacity:1;stroke-dasharray:none;stroke-dashoffset:0"
       inkscape:connector-curvature="0" />
    <path
       id="path3806"
       d="m 64,854.49108 c -19.287503,0 -34.966101,14.60455 -35.409806,32.77587 l -0.01876,0 0,0.79068 0,66.83189 70.857136,0 0,-66.83189 0,-0.79068 -0.0187,0 C 98.9661,869.09563 83.2875,854.49108 64,854.49108 z"
       style="fill:#570303;fill-opacity:1;stroke:#3e0000;stroke-width:1.99999988000000010;stroke-linecap:round;stroke-linejoin:bevel;stroke-miterlimit:4;stroke-opacity:1;stroke-dasharray:none;stroke-dashoffset:0"
       inkscape:connector-curvature="0" />
    <path
       style="fill:none;stroke:#3e0000;stroke-width:2;stroke-linecap:butt;stroke-linejoin:miter;stroke-miterlimit:4;stroke-opacity:1;stroke-dasharray:none"
       d="M 5.375644,987.92434 28.609153,955.09439"
       id="path3808"
       inkscape:connector-curvature="0" />
    <path
       style="fill:none;stroke:#3e0000;stroke-width:2;stroke-linecap:butt;stroke-linejoin:miter;stroke-miterlimit:4;stroke-opacity:1;stroke-dasharray:none"
       d="m 98.56222,954.33677 23.73858,33.33504"
       id="path3810"
       inkscape:connector-curvature="0" />
    <path
       inkscape:connector-curvature="0"
       id="path3812"
       d="m 6.268501,868.63862 22.697795,14.13434"
       style="fill:none;stroke:#3e0000;stroke-width:2;stroke-linecap:butt;stroke-linejoin:miter;stroke-miterlimit:4;stroke-opacity:1;stroke-dasharray:none"
       sodipodi:nodetypes="cc" />
    <path
       style="fill:#000000;fill-opacity:0.1254902;stroke:none"
       d="m 24.694812,952.06393 0.631345,-72.22591 c -0.544487,-20.80897 18.378182,-32.99424 37.754451,-36.87057 -18.74229,-0.74544 -41.160417,1.77867 -44.320443,27.65293 l -0.883883,93.81792 z"
       id="path3824"
       inkscape:connector-curvature="0"
       sodipodi:nodetypes="cccccc" />
    <path
       sodipodi:nodetypes="cccccc"
       inkscape:connector-curvature="0"
       id="path3826"
       d="m 104.26208,952.06393 -0.63135,-72.22591 c 0.54449,-20.80897 -18.37818,-32.99424 -37.75445,-36.87057 18.74229,-0.74544 41.16042,1.77867 44.32045,27.65293 l 0.88388,93.81792 z"
       style="fill:#ffffff;fill-opacity:0.1254902;stroke:none" />
    <path
       style="fill:#ffffff;fill-opacity:0.1254902;stroke:none"
       d="m 23.446429,971.45147 7.946428,-12.76786 64.910713,0.17857 8.21429,10.89286 z"
       id="path3830"
       inkscape:connector-curvature="0" />
    <path
       sodipodi:type="arc"
       style="fill:#930000;fill-opacity:1;stroke:#210000;stroke-width:1.19808018000000010;stroke-linecap:round;stroke-linejoin:bevel;stroke-miterlimit:4;stroke-opacity:1;stroke-dasharray:none;stroke-dashoffset:0"
       id="path3936"
       sodipodi:cx="-57.32143"
       sodipodi:cy="40.107143"
       sodipodi:rx="14.464286"
       sodipodi:ry="17.321428"
       d="m -42.857144,40.107143 a 14.464286,17.321428 0 1 1 -28.928572,0 14.464286,17.321428 0 1 1 28.928572,0 z"
       transform="matrix(1.7901235,0,0,1.556701,282.43387,771.89163)" />
    <path
       transform="matrix(1.7901235,0,0,1.556701,284.21958,804.39163)"
       d="m -42.857144,40.107143 a 14.464286,17.321428 0 1 1 -28.928572,0 14.464286,17.321428 0 1 1 28.928572,0 z"
       sodipodi:ry="17.321428"
       sodipodi:rx="14.464286"
       sodipodi:cy="40.107143"
       sodipodi:cx="-57.32143"
       id="path3938"
       style="fill:#720000;fill-opacity:1;stroke:#210000;stroke-width:1.19808018000000010;stroke-linecap:round;stroke-linejoin:bevel;stroke-miterlimit:4;stroke-opacity:1;stroke-dasharray:none;stroke-dashoffset:0"
       sodipodi:type="arc" />
    <path
       sodipodi:type="arc"
       style="fill:#660000;fill-opacity:1;stroke:#210000;stroke-width:1.19808018000000010;stroke-linecap:round;stroke-linejoin:bevel;stroke-miterlimit:4;stroke-opacity:1;stroke-dasharray:none;stroke-dashoffset:0"
       id="path3940"
       sodipodi:cx="-57.32143"
       sodipodi:cy="40.107143"
       sodipodi:rx="14.464286"
       sodipodi:ry="17.321428"
       d="m -42.857144,40.107143 a 14.464286,17.321428 0 1 1 -28.928572,0 14.464286,17.321428 0 1 1 28.928572,0 z"
       transform="matrix(1.7901235,0,0,1.556701,283.86244,839.03449)" />
    <path
       transform="matrix(1.7901235,0,0,1.556701,286.0053,872.24878)"
       d="m -42.857144,40.107143 a 14.464286,17.321428 0 1 1 -28.928572,0 14.464286,17.321428 0 1 1 28.928572,0 z"
       sodipodi:ry="17.321428"
       sodipodi:rx="14.464286"
       sodipodi:cy="40.107143"
       sodipodi:cx="-57.32143"
       id="path3942"
       style="fill:#570303;fill-opacity:1;stroke:#210000;stroke-width:1.19808018000000010;stroke-linecap:round;stroke-linejoin:bevel;stroke-miterlimit:4;stroke-opacity:1;stroke-dasharray:none;stroke-dashoffset:0"
       sodipodi:type="arc" />
  </g>
</svg>
