<?xml version="1.0" encoding="UTF-8" standalone="no"?>
<!-- Created with Inkscape (http://www.inkscape.org/) -->

<svg
   xmlns:dc="http://purl.org/dc/elements/1.1/"
   xmlns:cc="http://creativecommons.org/ns#"
   xmlns:rdf="http://www.w3.org/1999/02/22-rdf-syntax-ns#"
   xmlns:svg="http://www.w3.org/2000/svg"
   xmlns="http://www.w3.org/2000/svg"
   xmlns:sodipodi="http://sodipodi.sourceforge.net/DTD/sodipodi-0.dtd"
   xmlns:inkscape="http://www.inkscape.org/namespaces/inkscape"
   width="256"
   height="256"
   id="svg2"
   version="1.1"
   inkscape:version="0.48.2 r9819"
   sodipodi:docname="brick_circle.svg"
   inkscape:export-filename="C:\Users\Muffin\Documents\GitHub\Bolf\Assets\Art\LawnAtlas\brick_circle.png"
   inkscape:export-xdpi="90"
   inkscape:export-ydpi="90">
  <defs
     id="defs4" />
  <sodipodi:namedview
     id="base"
     pagecolor="#ffffff"
     bordercolor="#666666"
     borderopacity="1.0"
     inkscape:pageopacity="0.0"
     inkscape:pageshadow="2"
     inkscape:zoom="1.4142136"
     inkscape:cx="157.53408"
     inkscape:cy="171.68932"
     inkscape:document-units="px"
     inkscape:current-layer="layer1"
     showgrid="false"
     inkscape:window-width="1680"
     inkscape:window-height="988"
     inkscape:window-x="-8"
     inkscape:window-y="-8"
     inkscape:window-maximized="1"
     showguides="true"
     inkscape:guide-bbox="true" />
  <metadata
     id="metadata7">
    <rdf:RDF>
      <cc:Work
         rdf:about="">
        <dc:format>image/svg+xml</dc:format>
        <dc:type
           rdf:resource="http://purl.org/dc/dcmitype/StillImage" />
        <dc:title></dc:title>
      </cc:Work>
    </rdf:RDF>
  </metadata>
  <g
     inkscape:label="Layer 1"
     inkscape:groupmode="layer"
     id="layer1"
     transform="translate(0,-796.36218)">
    <rect
       style="fill:#7b3d36;fill-opacity:1;stroke:#5d2a24;stroke-width:2;stroke-linecap:butt;stroke-linejoin:bevel;stroke-miterlimit:4;stroke-opacity:1;stroke-dasharray:none"
       id="rect5468"
       width="62.000004"
       height="30"
       x="-279"
       y="1061.3622"
       ry="0" />
    <path
       style="fill:#ac9393;fill-opacity:0.1254902;stroke:none"
       d="m -278,1062.3622 0,28 60,0 0,-28 -60,0 z m 1.5,0.9062 12.25,3.875 9.75,-3.3437 7.71875,0.4062 10.65625,-0.1875 11,2.75 4.90625,-1.9062 -2.25,9.9062 3.21875,6 -0.71875,7.8125 -8.59375,0.062 -7.6875,-3.1875 -9.5,3.0625 -14.53125,-2.0312 -8.65625,1.6875 -6.875,-0.375 2.96875,-5.1563 -2.34375,-6.9375 0.46875,-6.75 -1.78125,-5.687 z"
       id="rect5470"
       inkscape:connector-curvature="0" />
    <rect
       ry="0"
       y="1021.3622"
       x="-379"
       height="30"
       width="62.000004"
       id="rect5474"
       style="fill:#7b3d36;fill-opacity:1;stroke:#662e27;stroke-width:2;stroke-linecap:butt;stroke-linejoin:bevel;stroke-miterlimit:4;stroke-opacity:1;stroke-dasharray:none" />
    <rect
       y="1022.3622"
       x="-378"
       height="28"
       width="60"
       id="rect5476"
       style="fill:#ffffff;fill-opacity:0.1254902;stroke:none" />
    <path
       sodipodi:nodetypes="cccccccccccccccccccc"
       inkscape:connector-curvature="0"
       id="path5478"
       d="m -368.92857,1048.1658 -6.875,-0.3572 2.94643,-5.1786 -2.32143,-6.9196 0.46763,-6.7427 -1.77399,-5.6912 12.24386,3.8625 9.73214,-3.3482 7.72322,0.4017 10.66964,-0.1785 10.98214,2.7678 4.91072,-1.9196 -2.23215,9.9107 3.21429,5.9821 -0.71429,7.8125 -8.61607,0.089 -7.67857,-3.2143 -9.50893,3.0804 -14.51674,-2.0497 z"
       style="fill:none;stroke:#000000;stroke-width:1px;stroke-linecap:butt;stroke-linejoin:miter;stroke-opacity:1" />
    <rect
       style="fill:#7b3d36;fill-opacity:1;stroke:#5d2a24;stroke-width:2;stroke-linecap:butt;stroke-linejoin:bevel;stroke-miterlimit:4;stroke-opacity:1;stroke-dasharray:none"
       id="rect5486"
       width="62.000004"
       height="30"
       x="-279"
       y="1029.3622"
       ry="0" />
    <path
       style="fill:#ac9393;fill-opacity:0.1254902;stroke:none"
       d="m -278,1030.3622 0,28 60,0 0,-28 -60,0 z m 1.5,0.9062 10.9375,1.4688 7.25,-1.0313 10.90625,2.25 11.28125,-1.9375 8.15625,0.7188 7.75,0.125 -0.8125,6.8125 -0.6875,7.6562 1.75,9.25 -5.0625,-1.1562 -6.875,0.5 -11.8125,-2.1563 -11.6875,2.125 -13.6875,-1.0625 -6.71875,0.9688 1,-6.1563 1.5,-7.5312 -2.375,-4.3438 -0.8125,-6.5 z"
       id="rect5488"
       inkscape:connector-curvature="0" />
    <rect
       ry="0"
       y="997.36218"
       x="-279"
       height="30"
       width="62.000004"
       id="rect5492"
       style="fill:#7b3d36;fill-opacity:1;stroke:#5d2a24;stroke-width:2;stroke-linecap:butt;stroke-linejoin:bevel;stroke-miterlimit:4;stroke-opacity:1;stroke-dasharray:none" />
    <path
       style="fill:#ac9393;fill-opacity:0.1254902;stroke:none"
       d="m -278,998.36218 0,28.00002 60,0 0,-28.00002 -60,0 z m 27.5625,1.4375 7.90625,2.43752 6.40625,-2.2188 10.5625,-0.15622 6.03125,1.43752 -0.28125,7.4375 -1.8125,4.4687 1.65625,10.6563 -9.03125,-0.9688 -8.03125,1.0313 -11.1875,-0.375 -7.46875,-2.0625 -7.6875,2.4062 -12.4375,-0.094 1.53125,-6.4062 -1.0625,-6.3125 0,-5.3125 -0.53125,-5.4375 13.21875,0.9375 12.21875,-1.46877 z"
       id="rect5494"
       inkscape:connector-curvature="0" />
    <rect
       style="fill:#7b3d36;fill-opacity:1;stroke:#5d2a24;stroke-width:2;stroke-linecap:butt;stroke-linejoin:bevel;stroke-miterlimit:4;stroke-opacity:1;stroke-dasharray:none"
       id="rect5498"
       width="62.000004"
       height="30"
       x="-279"
       y="965.36218"
       ry="0" />
    <path
       style="fill:#ac9393;fill-opacity:0.1254902;stroke:none"
       d="m -278,966.36218 0,28 60,0 0,-28 -60,0 z m 25.4375,1.4375 10.03125,1.71875 7.65625,-0.53125 9.84375,-0.5 5.5,0.8125 -1.9375,6.46875 0.90625,8.625 0.59375,7.46875 -6.3125,-0.0937 -6.53125,-0.0312 -10.75,-1.96875 -13.4375,1.5 -7.34375,-2.03125 -11.03125,2.5625 1.09375,-6.40625 -1.0625,-6.3125 0,-5.3125 -0.53125,-5.4375 13.125,1.125 10.1875,-1.65625 z"
       id="rect5500"
       inkscape:connector-curvature="0" />
    <g
       id="g3032"
       transform="translate(-128,180)">
      <rect
         style="fill:#7b3d36;fill-opacity:1;stroke:#5d2a24;stroke-width:2;stroke-linecap:butt;stroke-linejoin:bevel;stroke-miterlimit:4;stroke-opacity:1;stroke-dasharray:none"
         id="rect3004"
         width="62.000004"
         height="30"
         x="-79"
         y="881.36218"
         ry="0" />
      <path
         style="fill:#ac9393;fill-opacity:0.1254902;stroke:none"
         d="m -78,882.3622 0,28 60,0 0,-28 -60,0 z m 1.5,0.9062 12.25,3.875 9.75,-3.3437 7.71875,0.4062 10.65625,-0.1875 11,2.75 4.90625,-1.9062 -2.25,9.9062 3.21875,6 -0.71875,7.8125 -8.59375,0.062 -7.6875,-3.1875 -9.5,3.0625 -14.53125,-2.0312 -8.65625,1.6875 -6.875,-0.375 2.96875,-5.1563 -2.34375,-6.9375 0.46875,-6.75 -1.78125,-5.687 z"
         id="path3006"
         inkscape:connector-curvature="0" />
    </g>
    <g
       id="g3028"
       transform="translate(-128,200)">
      <rect
         style="fill:#7b3d36;fill-opacity:1;stroke:#5d2a24;stroke-width:2;stroke-linecap:butt;stroke-linejoin:bevel;stroke-miterlimit:4;stroke-opacity:1;stroke-dasharray:none"
         id="rect3008"
         width="62.000004"
         height="30"
         x="-79"
         y="829.36218"
         ry="0" />
      <path
         style="fill:#ac9393;fill-opacity:0.1254902;stroke:none"
         d="m -78,830.36218 0,28.00002 60,0 0,-28.00002 -60,0 z m 1.5,0.90625 10.9375,1.46875 7.25,-1.03125 10.90625,2.25 11.28125,-1.9375 8.15625,0.71875 7.75,0.125 -0.8125,6.8125 -0.6875,7.65622 1.75,9.25 -5.0625,-1.1562 -6.875,0.5 -11.8125,-2.1563 -11.6875,2.125 -13.6875,-1.0625 -6.71875,0.9688 1,-6.1563 1.5,-7.5312 -2.375,-4.34377 -0.8125,-6.5 z"
         id="path3010"
         inkscape:connector-curvature="0" />
    </g>
    <g
       id="g3024"
       transform="translate(-128,220)">
      <rect
         ry="0"
         y="777.36218"
         x="-79"
         height="30"
         width="62.000004"
         id="rect3012"
         style="fill:#7b3d36;fill-opacity:1;stroke:#5d2a24;stroke-width:2;stroke-linecap:butt;stroke-linejoin:bevel;stroke-miterlimit:4;stroke-opacity:1;stroke-dasharray:none" />
      <path
         style="fill:#ac9393;fill-opacity:0.1254902;stroke:none"
         d="m -78,778.36218 0,28 60,0 0,-28 -60,0 z m 27.5625,1.4375 7.90625,2.4375 6.40625,-2.21875 10.5625,-0.15625 6.03125,1.4375 -0.28125,7.4375 -1.8125,4.46875 1.65625,10.65625 -9.03125,-0.96875 -8.03125,1.03125 -11.1875,-0.375 -7.46875,-2.0625 -7.6875,2.40625 -12.4375,-0.0937 1.53125,-6.40625 -1.0625,-6.3125 0,-5.3125 -0.53125,-5.4375 13.21875,0.9375 12.21875,-1.46875 z"
         id="path3014"
         inkscape:connector-curvature="0" />
    </g>
    <g
       id="g3020"
       transform="translate(-128,240)">
      <rect
         style="fill:#7b3d36;fill-opacity:1;stroke:#5d2a24;stroke-width:2;stroke-linecap:butt;stroke-linejoin:bevel;stroke-miterlimit:4;stroke-opacity:1;stroke-dasharray:none"
         id="rect3016"
         width="62.000004"
         height="30"
         x="-79"
         y="725.36218"
         ry="0" />
      <path
         style="fill:#ac9393;fill-opacity:0.1254902;stroke:none"
         d="m -78,726.36218 0,28 60,0 0,-28 -60,0 z m 25.4375,1.4375 10.03125,1.71875 7.65625,-0.53125 9.84375,-0.5 5.5,0.8125 -1.9375,6.46875 0.90625,8.625 0.59375,7.46875 -6.3125,-0.0937 -6.53125,-0.0312 -10.75,-1.96875 -13.4375,1.5 -7.34375,-2.03125 -11.03125,2.5625 1.09375,-6.40625 -1.0625,-6.3125 0,-5.3125 -0.53125,-5.4375 13.125,1.125 10.1875,-1.65625 z"
         id="path3018"
         inkscape:connector-curvature="0" />
    </g>
    <g
       id="g4169">
      <path
         sodipodi:nodetypes="ccccc"
         inkscape:connector-curvature="0"
         id="path3060"
         d="m 1.0606602,923.40358 c 0.2039233,-10.40094 1.894843,-21.09305 3.9774756,-31.02431 l 60.1482702,15.82152 c -1.088672,5.10293 -1.919998,10.79728 -2.010834,15.22489 z"
         style="fill:#7b3d36;fill-opacity:1;stroke:#5d2a24;stroke-width:2;stroke-linecap:butt;stroke-linejoin:bevel;stroke-miterlimit:4;stroke-opacity:1;stroke-dasharray:none" />
      <path
         sodipodi:nodetypes="ccccc"
         inkscape:connector-curvature="0"
         id="path3830"
         d="m 5.5290292,890.55791 c 2.6119597,-9.59844 7.0512198,-19.91418 12.1629128,-29.01267 l 53.734835,30.97411 c -2.445496,4.3734 -4.660484,9.9057 -5.772748,14.11244 z"
         style="fill:#7b3d36;fill-opacity:1;stroke:#5d2a24;stroke-width:2;stroke-linecap:butt;stroke-linejoin:bevel;stroke-miterlimit:4;stroke-opacity:1;stroke-dasharray:none" />
      <path
         sodipodi:nodetypes="ccccc"
         inkscape:connector-curvature="0"
         id="path3832"
         d="m 18.492417,860.08315 c 5.236116,-8.60683 11.668771,-17.29348 19.066942,-24.73614 l 44.125,43.9375 c -4.1525,4.30139 -7.124461,8.31713 -9.291053,11.79106 z"
         style="fill:#7b3d36;fill-opacity:1;stroke:#5d2a24;stroke-width:2;stroke-linecap:butt;stroke-linejoin:bevel;stroke-miterlimit:4;stroke-opacity:1;stroke-dasharray:none" />
      <path
         sodipodi:nodetypes="ccccc"
         inkscape:connector-curvature="0"
         id="path3834"
         d="m 38.771447,833.99162 c 7.498976,-6.73019 16.223455,-14.04684 25.203966,-19.29549 l 30.771446,54.03347 c -4.283279,2.67586 -8.514708,5.9662 -11.96783,9.14016 z"
         style="fill:#7b3d36;fill-opacity:1;stroke:#5d2a24;stroke-width:2;stroke-linecap:butt;stroke-linejoin:bevel;stroke-miterlimit:4;stroke-opacity:1;stroke-dasharray:none" />
      <path
         sodipodi:nodetypes="ccccc"
         inkscape:connector-curvature="0"
         id="path3836"
         d="m 65.404029,813.83315 c 8.728992,-4.55698 18.329255,-8.98882 28.879442,-11.89016 l 15.974109,60.10669 c -4.77308,1.27873 -9.61652,3.07693 -13.890163,5.6875 z"
         style="fill:#7b3d36;fill-opacity:1;stroke:#5d2a24;stroke-width:2;stroke-linecap:butt;stroke-linejoin:bevel;stroke-miterlimit:4;stroke-opacity:1;stroke-dasharray:none" />
      <path
         sodipodi:nodetypes="ccccc"
         inkscape:connector-curvature="0"
         id="path3838"
         d="m 96.003141,801.47646 c 9.808819,-2.36706 20.545869,-4.09274 31.019609,-4.13259 l 0.0915,62.36742 c -5.12512,0.0275 -10.45943,0.67174 -15.08525,1.86428 z"
         style="fill:#7b3d36;fill-opacity:1;stroke:#5d2a24;stroke-width:2;stroke-linecap:butt;stroke-linejoin:bevel;stroke-miterlimit:4;stroke-opacity:1;stroke-dasharray:none" />
      <path
         id="path3920"
         d="m 5.84375,893.61218 c -1.910257,9.27972 -3.408867,19.14574 -3.6875,28.78125 l 60.125,0.0312 c 0.164788,-4.10252 0.84679,-8.93378 1.78125,-13.5 L 5.84375,893.61218 z m 1.65625,1.9375 8.84375,5.21875 13.1875,1.15625 9.875,3.8125 22.8125,4.15625 -1.75,4.21875 0.875,6.28125 -11.9375,0 -6,-2.375 -10.4375,3 L 19.625,920.92468 8.5,918.70593 3.625,920.92468 6.4375,913.76843 5.75,906.42468 7.5,895.54968 z"
         style="fill:#ac9393;fill-opacity:0.1254902;stroke:none"
         inkscape:connector-curvature="0" />
      <path
         id="path3922"
         d="m 18.125,862.92468 c -4.708649,8.52422 -8.815747,18.0059 -11.34375,26.9375 L 65,905.39343 c 1.120021,-3.90098 3.010576,-8.49947 5.15625,-12.5 L 18.125,862.92468 z m 0.25,1.53125 5.0625,5.65625 8.46875,2.03125 9.03125,5.46875 5.90625,6.8125 5.21875,-0.625 15.46875,9.1875 -3.375,1.4375 -1.3125,6.09375 1.59375,3.1875 L 52.25,899.54968 35,891.58093 l -11.9375,0 -14.9375,-2.65625 3.53125,-5.375 1.6875,-9.375 5.03125,-9.71875 z"
         style="fill:#ac9393;fill-opacity:0.1254902;stroke:none"
         inkscape:connector-curvature="0" />
      <path
         id="path3924"
         d="m 37.59375,836.79968 c -6.791424,6.96467 -12.752645,14.94249 -17.6875,22.9375 l 52.1875,30 c 2.016284,-3.13682 4.682493,-6.64633 8.21875,-10.40625 L 37.59375,836.79968 z m 0.15625,2.09375 7.15625,7.4375 9,9.53125 3.625,6.28125 7.6875,6.46875 7.25,4.21875 5.9375,6.375 -6.46875,4.4375 -0.25,2.90625 -9.28125,-6.625 -16.09375,-7.09375 -6.90625,-8.65625 -9.71875,-0.78125 -3.09375,-3.09375 -4.9375,-1.0625 4.78125,-3.71875 2.5625,-6.09375 8.75,-10.53125 z"
         style="fill:#ac9393;fill-opacity:0.1254902;stroke:none"
         inkscape:connector-curvature="0" />
      <path
         id="path3926"
         d="m 63.625,816.11218 c -8.275403,4.96731 -16.314377,11.63536 -23.375,17.9375 l 42.59375,42.4375 c 3.13975,-2.817 6.81144,-5.62985 10.59375,-8.0625 L 63.625,816.11218 z m -0.34375,1.65625 2.5625,11.6875 5.21875,2.65625 7.0625,11.90625 0.28125,10.25 6,2.65625 7,10.71875 -2.9375,-0.8125 -2.5625,1.9375 L 83,874.17468 68.78125,858.70593 l -3.09375,-4.875 -10.625,-6.4375 -3.71875,-7.15625 -8.75,-6.375 9.1875,-2.90625 4.15625,-6.71875 7.34375,-6.46875 z"
         style="fill:#ac9393;fill-opacity:0.1254902;stroke:none"
         inkscape:connector-curvature="0" />
      <path
         id="path3928"
         d="m 93.59375,803.20593 c -9.708386,2.77337 -18.601137,6.83055 -26.78125,11.0625 l 29.96875,52.125 c 3.85658,-2.21892 8.05722,-3.81661 12.25,-5 l -15.4375,-58.1875 z m -0.875,1.5 3.4375,14.9375 2.3125,12 3.625,11.78125 5.03125,16.15625 -9.375,3.46875 -4.15625,-11.875 -9.71875,-10.9375 -4.40625,-11.15625 -11.40625,-14.75 8.40625,-2.03125 10.78125,-5.9375 5.46875,-1.65625 z"
         style="fill:#ac9393;fill-opacity:0.1254902;stroke:none"
         inkscape:connector-curvature="0" />
      <path
         id="path3930"
         d="m 126.03125,798.36218 c -9.71002,0.13591 -19.60502,1.71456 -28.78125,3.875 l 15.5,58.15625 c 4.19724,-0.99848 8.81101,-1.5336 13.375,-1.625 l -0.0937,-60.40625 z m -1.40625,1.03125 -1.40625,10.25 1.9375,7.59375 -2.5625,9.125 2.3125,11.84375 -0.0937,18.8125 -4.96875,-0.625 -5.46875,2.03125 -0.4375,-6.875 -5.21875,-17.40625 -3,-13.625 -0.0938,-7.34375 -6.1875,-10.25 10.34375,-1.0625 14.84375,-2.46875 z"
         style="fill:#ac9393;fill-opacity:0.1254902;stroke:none"
         inkscape:connector-curvature="0" />
    </g>
    <path
       sodipodi:nodetypes="ccccc"
       inkscape:connector-curvature="0"
       id="path3974"
       d="m -338.93934,923.40358 c 0.20392,-10.40094 1.89484,-21.09305 3.97748,-31.02431 l 60.14827,15.82152 c -1.08868,5.10293 -1.92,10.79728 -2.01084,15.22489 z"
       style="fill:#7b3d36;fill-opacity:1;stroke:#5d2a24;stroke-width:2;stroke-linecap:butt;stroke-linejoin:bevel;stroke-miterlimit:4;stroke-opacity:1;stroke-dasharray:none" />
    <path
       sodipodi:nodetypes="ccccc"
       inkscape:connector-curvature="0"
       id="path3976"
       d="m -334.47097,890.55791 c 2.61196,-9.59844 7.05122,-19.91418 12.16291,-29.01267 l 53.73484,30.97411 c -2.4455,4.3734 -4.66049,9.9057 -5.77275,14.11244 z"
       style="fill:#7b3d36;fill-opacity:1;stroke:#5d2a24;stroke-width:2;stroke-linecap:butt;stroke-linejoin:bevel;stroke-miterlimit:4;stroke-opacity:1;stroke-dasharray:none" />
    <path
       sodipodi:nodetypes="ccccc"
       inkscape:connector-curvature="0"
       id="path3978"
       d="m -321.50758,860.08315 c 5.23611,-8.60683 11.66877,-17.29348 19.06694,-24.73613 l 44.125,43.9375 c -4.1525,4.30138 -7.12446,8.31712 -9.29105,11.79105 z"
       style="fill:#7b3d36;fill-opacity:1;stroke:#5d2a24;stroke-width:2;stroke-linecap:butt;stroke-linejoin:bevel;stroke-miterlimit:4;stroke-opacity:1;stroke-dasharray:none" />
    <path
       sodipodi:nodetypes="ccccc"
       inkscape:connector-curvature="0"
       id="path3980"
       d="m -301.22855,833.99162 c 7.49897,-6.73019 16.22345,-14.04684 25.20396,-19.29549 l 30.77145,54.03347 c -4.28328,2.67586 -8.51471,5.9662 -11.96783,9.14016 z"
       style="fill:#7b3d36;fill-opacity:1;stroke:#5d2a24;stroke-width:2;stroke-linecap:butt;stroke-linejoin:bevel;stroke-miterlimit:4;stroke-opacity:1;stroke-dasharray:none" />
    <path
       sodipodi:nodetypes="ccccc"
       inkscape:connector-curvature="0"
       id="path3982"
       d="m -274.59597,813.83315 c 8.72899,-4.55698 18.32925,-8.98882 28.87944,-11.89016 l 15.97411,60.10669 c -4.77308,1.27873 -9.61652,3.07693 -13.89016,5.6875 z"
       style="fill:#7b3d36;fill-opacity:1;stroke:#5d2a24;stroke-width:2;stroke-linecap:butt;stroke-linejoin:bevel;stroke-miterlimit:4;stroke-opacity:1;stroke-dasharray:none" />
    <path
       sodipodi:nodetypes="ccccc"
       inkscape:connector-curvature="0"
       id="path3984"
       d="m -243.99686,801.47646 c 9.80882,-2.36705 20.54587,-4.09274 31.01961,-4.13259 l 0.0915,62.36742 c -5.12512,0.0275 -10.45943,0.67174 -15.08525,1.86428 z"
       style="fill:#7b3d36;fill-opacity:1;stroke:#5d2a24;stroke-width:2;stroke-linecap:butt;stroke-linejoin:bevel;stroke-miterlimit:4;stroke-opacity:1;stroke-dasharray:none" />
    <path
       inkscape:connector-curvature="0"
       id="path3986"
       d="m -334.15625,893.61218 c -1.91026,9.27972 -3.40887,19.14574 -3.6875,28.78125 l 60.125,0.0312 c 0.16479,-4.10252 0.84679,-8.93378 1.78125,-13.5 l -58.21875,-15.3125 z"
       style="fill:#ac9393;fill-opacity:0.1254902;stroke:none" />
    <path
       inkscape:connector-curvature="0"
       id="path3988"
       d="m -321.875,862.92468 c -4.70865,8.52422 -8.81575,18.0059 -11.34375,26.9375 L -275,905.39343 c 1.12002,-3.90098 3.01058,-8.49947 5.15625,-12.5 L -321.875,862.92468 z"
       style="fill:#ac9393;fill-opacity:0.1254902;stroke:none" />
    <path
       inkscape:connector-curvature="0"
       id="path3990"
       d="m -302.40625,836.79968 c -6.79142,6.96467 -12.75265,14.94249 -17.6875,22.9375 l 52.1875,30 c 2.01628,-3.13682 4.68249,-6.64633 8.21875,-10.40625 l -42.71875,-42.53125 z"
       style="fill:#ac9393;fill-opacity:0.1254902;stroke:none" />
    <path
       inkscape:connector-curvature="0"
       id="path3992"
       d="m -276.375,816.11218 c -8.2754,4.96731 -16.31438,11.63536 -23.375,17.9375 l 42.59375,42.4375 c 3.13975,-2.817 6.81144,-5.62985 10.59375,-8.0625 l -29.8125,-52.3125 z"
       style="fill:#ac9393;fill-opacity:0.1254902;stroke:none" />
    <path
       inkscape:connector-curvature="0"
       id="path3994"
       d="m -246.40625,803.20593 c -9.70839,2.77337 -18.60114,6.83055 -26.78125,11.0625 l 29.96875,52.125 c 3.85658,-2.21892 8.05722,-3.81661 12.25,-5 l -15.4375,-58.1875 z"
       style="fill:#ac9393;fill-opacity:0.1254902;stroke:none" />
    <path
       inkscape:connector-curvature="0"
       id="path3996"
       d="m -213.96875,798.36218 c -9.71002,0.13591 -19.60502,1.71456 -28.78125,3.875 l 15.5,58.15625 c 4.19724,-0.99848 8.81101,-1.5336 13.375,-1.625 l -0.0937,-60.40625 z"
       style="fill:#ac9393;fill-opacity:0.1254902;stroke:none" />
    <path
       sodipodi:nodetypes="ccccc"
       inkscape:connector-curvature="0"
       id="path4010"
       d="m -198.93934,923.40358 c 0.20392,-10.40094 1.89484,-21.09305 3.97748,-31.02431 l 60.14827,15.82152 c -1.08868,5.10293 -1.92,10.79728 -2.01084,15.22489 z"
       style="fill:#7b3d36;fill-opacity:1;stroke:#5d2a24;stroke-width:2;stroke-linecap:butt;stroke-linejoin:bevel;stroke-miterlimit:4;stroke-opacity:1;stroke-dasharray:none" />
    <path
       sodipodi:nodetypes="ccccc"
       inkscape:connector-curvature="0"
       id="path4012"
       d="m -194.47097,890.55791 c 2.61196,-9.59844 7.05122,-19.91418 12.16291,-29.01267 l 53.73484,30.97411 c -2.4455,4.3734 -4.66049,9.9057 -5.77275,14.11244 z"
       style="fill:#7b3d36;fill-opacity:1;stroke:#5d2a24;stroke-width:2;stroke-linecap:butt;stroke-linejoin:bevel;stroke-miterlimit:4;stroke-opacity:1;stroke-dasharray:none" />
    <path
       sodipodi:nodetypes="ccccc"
       inkscape:connector-curvature="0"
       id="path4014"
       d="m -181.50758,860.08315 c 5.23611,-8.60683 11.66877,-17.29348 19.06694,-24.73613 l 44.125,43.9375 c -4.1525,4.30138 -7.12446,8.31712 -9.29105,11.79105 z"
       style="fill:#7b3d36;fill-opacity:1;stroke:#5d2a24;stroke-width:2;stroke-linecap:butt;stroke-linejoin:bevel;stroke-miterlimit:4;stroke-opacity:1;stroke-dasharray:none" />
    <path
       sodipodi:nodetypes="ccccc"
       inkscape:connector-curvature="0"
       id="path4016"
       d="m -161.22855,833.99162 c 7.49897,-6.73019 16.22345,-14.04684 25.20396,-19.29549 l 30.77145,54.03347 c -4.28328,2.67586 -8.51471,5.9662 -11.96783,9.14016 z"
       style="fill:#7b3d36;fill-opacity:1;stroke:#5d2a24;stroke-width:2;stroke-linecap:butt;stroke-linejoin:bevel;stroke-miterlimit:4;stroke-opacity:1;stroke-dasharray:none" />
    <path
       sodipodi:nodetypes="ccccc"
       inkscape:connector-curvature="0"
       id="path4018"
       d="m -134.59597,813.83315 c 8.72899,-4.55698 18.32925,-8.98882 28.87944,-11.89016 l 15.97411,60.10669 c -4.77308,1.27873 -9.61652,3.07693 -13.89016,5.6875 z"
       style="fill:#7b3d36;fill-opacity:1;stroke:#5d2a24;stroke-width:2;stroke-linecap:butt;stroke-linejoin:bevel;stroke-miterlimit:4;stroke-opacity:1;stroke-dasharray:none" />
    <path
       sodipodi:nodetypes="ccccc"
       inkscape:connector-curvature="0"
       id="path4020"
       d="m -103.99686,801.47646 c 9.80882,-2.36705 20.54587,-4.09274 31.01961,-4.13259 l 0.0915,62.36742 c -5.12512,0.0275 -10.45943,0.67174 -15.08525,1.86428 z"
       style="fill:#7b3d36;fill-opacity:1;stroke:#5d2a24;stroke-width:2;stroke-linecap:butt;stroke-linejoin:bevel;stroke-miterlimit:4;stroke-opacity:1;stroke-dasharray:none" />
    <path
       inkscape:connector-curvature="0"
       id="path4022"
       d="m -194.15625,893.61218 c -1.91026,9.27972 -3.40887,19.14574 -3.6875,28.78125 l 60.125,0.0312 c 0.16479,-4.10252 0.84679,-8.93378 1.78125,-13.5 l -58.21875,-15.3125 z"
       style="fill:#ac9393;fill-opacity:0.1254902;stroke:none" />
    <path
       inkscape:connector-curvature="0"
       id="path4024"
       d="m -181.875,862.92468 c -4.70865,8.52422 -8.81575,18.0059 -11.34375,26.9375 L -135,905.39343 c 1.12002,-3.90098 3.01058,-8.49947 5.15625,-12.5 L -181.875,862.92468 z"
       style="fill:#ac9393;fill-opacity:0.1254902;stroke:none" />
    <path
       inkscape:connector-curvature="0"
       id="path4026"
       d="m -162.40625,836.79968 c -6.79142,6.96467 -12.75265,14.94249 -17.6875,22.9375 l 52.1875,30 c 2.01628,-3.13682 4.68249,-6.64633 8.21875,-10.40625 l -42.71875,-42.53125 z"
       style="fill:#ac9393;fill-opacity:0.1254902;stroke:none" />
    <path
       inkscape:connector-curvature="0"
       id="path4028"
       d="m -136.375,816.11218 c -8.2754,4.96731 -16.31438,11.63536 -23.375,17.9375 l 42.59375,42.4375 c 3.13975,-2.817 6.81144,-5.62985 10.59375,-8.0625 l -29.8125,-52.3125 z"
       style="fill:#ac9393;fill-opacity:0.1254902;stroke:none" />
    <path
       inkscape:connector-curvature="0"
       id="path4030"
       d="m -106.40625,803.20593 c -9.70839,2.77337 -18.60114,6.83055 -26.78125,11.0625 l 29.96875,52.125 c 3.85658,-2.21892 8.05722,-3.81661 12.25,-5 l -15.4375,-58.1875 z"
       style="fill:#ac9393;fill-opacity:0.1254902;stroke:none" />
    <path
       inkscape:connector-curvature="0"
       id="path4032"
       d="m -73.96875,798.36218 c -9.71002,0.13591 -19.60502,1.71456 -28.78125,3.875 l 15.5,58.15625 c 4.19724,-0.99848 8.81101,-1.5336 13.375,-1.625 l -0.0937,-60.40625 z"
       style="fill:#ac9393;fill-opacity:0.1254902;stroke:none" />
    <path
       inkscape:connector-curvature="0"
       id="path4034"
       d="m -196.37608,920.92871 2.82843,-7.15946 -0.70711,-7.33623 1.76777,-10.87177 8.83883,5.21491 13.16987,1.14905 9.89949,3.8007 22.8042,4.15425 -1.76777,4.24264 0.88388,6.27558 -11.93242,0 -6.01041,-2.38649 -10.42983,3.00521 -13.34664,-0.0884 -11.13693,-2.2097 z"
       style="fill:none;stroke:#000000;stroke-width:1px;stroke-linecap:butt;stroke-linejoin:miter;stroke-opacity:1" />
    <path
       inkscape:connector-curvature="0"
       id="path4036"
       d="m -191.86827,888.93213 3.53553,-5.39169 1.67938,-9.36917 5.03814,-9.72272 5.03813,5.65686 8.48528,2.03293 9.01561,5.48008 5.92202,6.8059 5.21492,-0.61872 15.46796,9.19239 -3.35876,1.41421 -1.32582,6.0988 1.59099,3.18198 -12.1976,-4.15425 -17.23572,-7.95495 -11.93243,0 z"
       style="fill:none;stroke:#000000;stroke-width:1px;stroke-linecap:butt;stroke-linejoin:miter;stroke-opacity:1" />
    <path
       inkscape:connector-curvature="0"
       id="path4038"
       d="m -178.34485,859.23364 4.77297,-3.71231 2.56326,-6.0988 8.75044,-10.51821 7.15946,7.42462 9.01561,9.54594 3.62392,6.27558 7.68979,6.45235 7.24784,4.24264 5.92202,6.36396 -6.45235,4.41941 -0.26516,2.91682 -9.28078,-6.62913 -16.08668,-7.07106 -6.89429,-8.66206 -9.72272,-0.7955 -3.09359,-3.09359 z"
       style="fill:none;stroke:#000000;stroke-width:1px;stroke-linecap:butt;stroke-linejoin:miter;stroke-opacity:1" />
    <path
       sodipodi:nodetypes="cccccccccccccccccc"
       inkscape:connector-curvature="0"
       id="path4040"
       d="m -157.39682,833.86618 8.75045,6.36397 3.71231,7.15945 10.6066,6.45235 3.09359,4.86136 14.23053,15.46796 2.91681,-5.39169 2.56327,-1.94454 2.91681,0.79549 -6.98268,-10.69499 -6.01041,-2.65165 -0.26516,-10.25305 -7.07107,-11.93242 -5.21491,-2.65165 -2.56326,-11.66726 -7.33624,6.45235 -4.15425,6.71751 -9.19239,2.91681"
       style="fill:none;stroke:#000000;stroke-width:1px;stroke-linecap:butt;stroke-linejoin:miter;stroke-opacity:1" />
    <path
       sodipodi:nodetypes="cccccccccccccc"
       inkscape:connector-curvature="0"
       id="path4042"
       d="m -131.94097,814.33236 8.39689,-2.03293 10.78338,-5.92202 5.48008,-1.67938 3.44714,14.93763 2.2981,12.02082 3.62392,11.75565 5.03814,16.17506 -9.36917,3.44715 -4.15425,-11.84404 -9.72272,-10.96015 m 0,0 -4.41941,-11.13694 -11.4021,-14.76085"
       style="fill:none;stroke:#000000;stroke-width:1px;stroke-linecap:butt;stroke-linejoin:miter;stroke-opacity:1" />
    <path
       inkscape:connector-curvature="0"
       id="path4044"
       d="m -100.56311,802.93026 10.34144,-1.06066 14.84924,-2.47487 -1.41421,10.25305 1.94454,7.6014 -2.56326,9.104 2.2981,11.84403 -0.0884,18.82672 -4.94974,-0.61872 -5.48008,2.03294 -0.44194,-6.8943 -5.21491,-17.4125 -3.00521,-13.61181 -0.0884,-7.33623 z"
       style="fill:none;stroke:#000000;stroke-width:1px;stroke-linecap:butt;stroke-linejoin:miter;stroke-opacity:1" />
    <g
       id="g4086"
       transform="translate(0,-400)">
      <path
         sodipodi:type="arc"
         style="fill:#ac9393;fill-opacity:0.1254902;stroke:#5d2a24;stroke-width:0.96299082;stroke-linecap:butt;stroke-linejoin:bevel;stroke-miterlimit:4;stroke-opacity:1;stroke-dasharray:none;stroke-dashoffset:0"
         id="path4088"
         sodipodi:cx="154.75"
         sodipodi:cy="164.75"
         sodipodi:rx="57.75"
         sodipodi:ry="64.75"
         d="m 212.5,164.75 c 0,35.76044 -25.85556,64.75 -57.75,64.75 C 122.85556,229.5 97,200.51044 97,164.75 97,128.98956 122.85556,100 154.75,100 c 31.89444,0 57.75,28.98956 57.75,64.75 z"
         transform="matrix(2.1991342,0,0,1.96139,-212.31601,601.22318)" />
      <path
         style="fill:none;stroke:#000000;stroke-width:1px;stroke-linecap:butt;stroke-linejoin:miter;stroke-opacity:1"
         d="m -42,924.36218 340,0"
         id="path4090"
         inkscape:connector-curvature="0" />
      <path
         inkscape:connector-curvature="0"
         id="path4092"
         d="m 128,1094.3622 0,-340.00003"
         style="fill:none;stroke:#000000;stroke-width:1px;stroke-linecap:butt;stroke-linejoin:miter;stroke-opacity:1" />
      <g
         transform="translate(80,44)"
         id="g4094">
        <rect
           ry="0"
           y="881.36218"
           x="-79"
           height="30"
           width="62.000004"
           id="rect4096"
           style="fill:#7b3d36;fill-opacity:1;stroke:#5d2a24;stroke-width:2;stroke-linecap:butt;stroke-linejoin:bevel;stroke-miterlimit:4;stroke-opacity:1;stroke-dasharray:none" />
        <path
           inkscape:connector-curvature="0"
           id="path4098"
           d="m -78,882.3622 0,28 60,0 0,-28 -60,0 z m 1.5,0.9062 12.25,3.875 9.75,-3.3437 7.71875,0.4062 10.65625,-0.1875 11,2.75 4.90625,-1.9062 -2.25,9.9062 3.21875,6 -0.71875,7.8125 -8.59375,0.062 -7.6875,-3.1875 -9.5,3.0625 -14.53125,-2.0312 -8.65625,1.6875 -6.875,-0.375 2.96875,-5.1563 -2.34375,-6.9375 0.46875,-6.75 -1.78125,-5.687 z"
           style="fill:#ac9393;fill-opacity:0.1254902;stroke:none" />
      </g>
      <g
         transform="matrix(0,1,-1,0,884.36218,876.36218)"
         id="g4100">
        <rect
           ry="0"
           y="725.36218"
           x="-79"
           height="30"
           width="62.000004"
           id="rect4102"
           style="fill:#7b3d36;fill-opacity:1;stroke:#5d2a24;stroke-width:2;stroke-linecap:butt;stroke-linejoin:bevel;stroke-miterlimit:4;stroke-opacity:1;stroke-dasharray:none" />
        <path
           inkscape:connector-curvature="0"
           id="path4104"
           d="m -78,726.36218 0,28 60,0 0,-28 -60,0 z m 25.4375,1.4375 10.03125,1.71875 7.65625,-0.53125 9.84375,-0.5 5.5,0.8125 -1.9375,6.46875 0.90625,8.625 0.59375,7.46875 -6.3125,-0.0937 -6.53125,-0.0312 -10.75,-1.96875 -13.4375,1.5 -7.34375,-2.03125 -11.03125,2.5625 1.09375,-6.40625 -1.0625,-6.3125 0,-5.3125 -0.53125,-5.4375 13.125,1.125 10.1875,-1.65625 z"
           style="fill:#ac9393;fill-opacity:0.1254902;stroke:none" />
      </g>
      <path
         transform="matrix(1.0909091,0,0,0.97297299,-40.818174,764.06488)"
         d="m 212.5,164.75 c 0,35.76044 -25.85556,64.75 -57.75,64.75 C 122.85556,229.5 97,200.51044 97,164.75 97,128.98956 122.85556,100 154.75,100 c 31.89444,0 57.75,28.98956 57.75,64.75 z"
         sodipodi:ry="64.75"
         sodipodi:rx="57.75"
         sodipodi:cy="164.75"
         sodipodi:cx="154.75"
         id="path4106"
         style="fill:#ac9393;fill-opacity:0.1254902;stroke:#5d2a24;stroke-width:1.94126725;stroke-linecap:butt;stroke-linejoin:bevel;stroke-miterlimit:4;stroke-opacity:1;stroke-dasharray:none;stroke-dashoffset:0"
         sodipodi:type="arc" />
      <path
         inkscape:connector-curvature="0"
         id="path4108"
         d="M -36.207396,880.36295 292.20739,968.36142"
         style="fill:none;stroke:#000000;stroke-width:1px;stroke-linecap:butt;stroke-linejoin:miter;stroke-opacity:1" />
      <path
         style="fill:none;stroke:#000000;stroke-width:1px;stroke-linecap:butt;stroke-linejoin:miter;stroke-opacity:1"
         d="M -19.224331,839.36219 275.22431,1009.3622"
         id="path4110"
         inkscape:connector-curvature="0" />
      <path
         inkscape:connector-curvature="0"
         id="path4112"
         d="M 7.7918275,804.15404 248.20813,1044.5704"
         style="fill:none;stroke:#000000;stroke-width:1px;stroke-linecap:butt;stroke-linejoin:miter;stroke-opacity:1" />
      <path
         style="fill:none;stroke:#000000;stroke-width:1px;stroke-linecap:butt;stroke-linejoin:miter;stroke-opacity:1"
         d="M 42.999983,777.13788 212.99997,1071.5866"
         id="path4114"
         inkscape:connector-curvature="0" />
      <path
         inkscape:connector-curvature="0"
         id="path4116"
         d="M 84.000756,760.15481 171.9992,1088.5697"
         style="fill:none;stroke:#000000;stroke-width:1px;stroke-linecap:butt;stroke-linejoin:miter;stroke-opacity:1" />
      <path
         style="fill:#7b3d36;fill-opacity:1;stroke:#5d2a24;stroke-width:2;stroke-linecap:butt;stroke-linejoin:bevel;stroke-miterlimit:4;stroke-opacity:1;stroke-dasharray:none"
         d="M 1.0606602,127.0414 C 1.2645835,116.64046 2.9555032,105.94835 5.0381358,96.017091 L 65.186406,111.83861 c -1.088672,5.10293 -1.919998,10.79728 -2.010834,15.22489 z"
         id="path4118"
         inkscape:connector-curvature="0"
         transform="translate(0,796.36218)"
         sodipodi:nodetypes="ccccc" />
      <path
         style="fill:#7b3d36;fill-opacity:1;stroke:#5d2a24;stroke-width:2;stroke-linecap:butt;stroke-linejoin:bevel;stroke-miterlimit:4;stroke-opacity:1;stroke-dasharray:none"
         d="M 5.5290292,94.195733 C 8.1409889,84.597292 12.580249,74.281553 17.691942,65.183058 L 71.426777,96.15717 c -2.445496,4.3734 -4.660484,9.9057 -5.772748,14.11244 z"
         id="path4120"
         inkscape:connector-curvature="0"
         transform="translate(0,796.36218)"
         sodipodi:nodetypes="ccccc" />
      <path
         style="fill:#7b3d36;fill-opacity:1;stroke:#5d2a24;stroke-width:2;stroke-linecap:butt;stroke-linejoin:bevel;stroke-miterlimit:4;stroke-opacity:1;stroke-dasharray:none"
         d="M 18.492417,63.720971 C 23.728533,55.114136 30.161188,46.427487 37.559359,38.984835 l 44.125,43.9375 c -4.1525,4.301389 -7.124461,8.317126 -9.291053,11.791053 z"
         id="path4122"
         inkscape:connector-curvature="0"
         transform="translate(0,796.36218)"
         sodipodi:nodetypes="ccccc" />
      <path
         style="fill:#7b3d36;fill-opacity:1;stroke:#5d2a24;stroke-width:2;stroke-linecap:butt;stroke-linejoin:bevel;stroke-miterlimit:4;stroke-opacity:1;stroke-dasharray:none"
         d="m 38.771447,37.629442 c 7.498976,-6.730191 16.223455,-14.04684 25.203966,-19.295495 l 30.771446,54.03347 c -4.283279,2.675866 -8.514708,5.966206 -11.96783,9.140166 z"
         id="path4124"
         inkscape:connector-curvature="0"
         transform="translate(0,796.36218)"
         sodipodi:nodetypes="ccccc" />
      <path
         style="fill:#7b3d36;fill-opacity:1;stroke:#5d2a24;stroke-width:2;stroke-linecap:butt;stroke-linejoin:bevel;stroke-miterlimit:4;stroke-opacity:1;stroke-dasharray:none"
         d="M 65.404029,17.470971 C 74.133021,12.913994 83.733284,8.4821503 94.283471,5.5808055 L 110.25758,65.6875 c -4.77308,1.278729 -9.61652,3.076932 -13.890163,5.6875 z"
         id="path4126"
         inkscape:connector-curvature="0"
         transform="translate(0,796.36218)"
         sodipodi:nodetypes="ccccc" />
      <path
         style="fill:#7b3d36;fill-opacity:1;stroke:#5d2a24;stroke-width:2;stroke-linecap:butt;stroke-linejoin:bevel;stroke-miterlimit:4;stroke-opacity:1;stroke-dasharray:none"
         d="M 96.003141,5.1142764 C 105.81196,2.747225 116.54901,1.0215354 127.02275,0.9816939 l 0.0915,62.3674181 c -5.12512,0.02749 -10.45943,0.671739 -15.08525,1.864276 z"
         id="path4128"
         inkscape:connector-curvature="0"
         transform="translate(0,796.36218)"
         sodipodi:nodetypes="ccccc" />
      <path
         style="fill:#ac9393;fill-opacity:0.1254902;stroke:none"
         d="m 5.84375,97.25 c -1.910257,9.27972 -3.408867,19.14574 -3.6875,28.78125 l 60.125,0.0312 c 0.164788,-4.10252 0.84679,-8.93378 1.78125,-13.5 L 5.84375,97.25 z M 7.5,99.1875 l 8.84375,5.21875 13.1875,1.15625 9.875,3.8125 22.8125,4.15625 -1.75,4.21875 0.875,6.28125 -11.9375,0 -6,-2.375 -10.4375,3 L 19.625,124.5625 8.5,122.34375 3.625,124.5625 6.4375,117.40625 5.75,110.0625 7.5,99.1875 z"
         transform="translate(0,796.36218)"
         id="path4130"
         inkscape:connector-curvature="0" />
      <path
         style="fill:#ac9393;fill-opacity:0.1254902;stroke:none"
         d="M 18.125,66.5625 C 13.416351,75.08672 9.309253,84.5684 6.78125,93.5 L 65,109.03125 c 1.120021,-3.90098 3.010576,-8.49947 5.15625,-12.5 L 18.125,66.5625 z m 0.25,1.53125 5.0625,5.65625 8.46875,2.03125 9.03125,5.46875 5.90625,6.8125 5.21875,-0.625 15.46875,9.1875 -3.375,1.4375 -1.3125,6.09375 1.59375,3.1875 L 52.25,103.1875 35,95.21875 l -11.9375,0 -14.9375,-2.65625 3.53125,-5.375 1.6875,-9.375 5.03125,-9.71875 z"
         transform="translate(0,796.36218)"
         id="path4132"
         inkscape:connector-curvature="0" />
      <path
         style="fill:#ac9393;fill-opacity:0.1254902;stroke:none"
         d="M 37.59375,40.4375 C 30.802326,47.40217 24.841105,55.37999 19.90625,63.375 l 52.1875,30 c 2.016284,-3.13682 4.682493,-6.64633 8.21875,-10.40625 L 37.59375,40.4375 z m 0.15625,2.09375 7.15625,7.4375 9,9.53125 3.625,6.28125 7.6875,6.46875 7.25,4.21875 5.9375,6.375 -6.46875,4.4375 -0.25,2.90625 -9.28125,-6.625 L 46.3125,76.46875 39.40625,67.8125 29.6875,67.03125 26.59375,63.9375 21.65625,62.875 26.4375,59.15625 29,53.0625 37.75,42.53125 z"
         transform="translate(0,796.36218)"
         id="path4134"
         inkscape:connector-curvature="0" />
      <path
         style="fill:#ac9393;fill-opacity:0.1254902;stroke:none"
         d="M 63.625,19.75 C 55.349597,24.71731 47.310623,31.38536 40.25,37.6875 L 82.84375,80.125 C 85.9835,77.308 89.65519,74.49515 93.4375,72.0625 L 63.625,19.75 z m -0.34375,1.65625 2.5625,11.6875 5.21875,2.65625 7.0625,11.90625 0.28125,10.25 6,2.65625 7,10.71875 -2.9375,-0.8125 -2.5625,1.9375 L 83,77.8125 68.78125,62.34375 l -3.09375,-4.875 -10.625,-6.4375 -3.71875,-7.15625 -8.75,-6.375 9.1875,-2.90625 4.15625,-6.71875 7.34375,-6.46875 z"
         transform="translate(0,796.36218)"
         id="path4136"
         inkscape:connector-curvature="0" />
      <path
         style="fill:#ac9393;fill-opacity:0.1254902;stroke:none"
         d="M 93.59375,6.84375 C 83.885364,9.61712 74.992613,13.6743 66.8125,17.90625 l 29.96875,52.125 c 3.85658,-2.21892 8.05722,-3.81661 12.25,-5 L 93.59375,6.84375 z m -0.875,1.5 3.4375,14.9375 2.3125,12 3.625,11.78125 L 107.125,63.21875 97.75,66.6875 93.59375,54.8125 83.875,43.875 79.46875,32.71875 68.0625,17.96875 76.46875,15.9375 87.25,10 92.71875,8.34375 z"
         transform="translate(0,796.36218)"
         id="path4138"
         inkscape:connector-curvature="0" />
      <path
         style="fill:#ac9393;fill-opacity:0.1254902;stroke:none"
         d="M 126.03125,2 C 116.32123,2.13591 106.42623,3.71456 97.25,5.875 l 15.5,58.15625 c 4.19724,-0.99848 8.81101,-1.5336 13.375,-1.625 L 126.03125,2 z m -1.40625,1.03125 -1.40625,10.25 1.9375,7.59375 -2.5625,9.125 2.3125,11.84375 -0.0937,18.8125 -4.96875,-0.625 -5.46875,2.03125 -0.4375,-6.875 -5.21875,-17.40625 -3,-13.625 L 105.625,16.8125 99.4375,6.5625 109.78125,5.5 124.625,3.03125 z"
         transform="translate(0,796.36218)"
         id="path4140"
         inkscape:connector-curvature="0" />
    </g>
    <g
       id="g4183"
       transform="matrix(0,-1,1,0,-796.29732,1052.4722)">
      <path
         style="fill:#7b3d36;fill-opacity:1;stroke:#5d2a24;stroke-width:2;stroke-linecap:butt;stroke-linejoin:bevel;stroke-miterlimit:4;stroke-opacity:1;stroke-dasharray:none"
         d="m 1.0606602,923.40358 c 0.2039233,-10.40094 1.894843,-21.09305 3.9774756,-31.02431 l 60.1482702,15.82152 c -1.088672,5.10293 -1.919998,10.79728 -2.010834,15.22489 z"
         id="path4185"
         inkscape:connector-curvature="0"
         sodipodi:nodetypes="ccccc" />
      <path
         style="fill:#7b3d36;fill-opacity:1;stroke:#5d2a24;stroke-width:2;stroke-linecap:butt;stroke-linejoin:bevel;stroke-miterlimit:4;stroke-opacity:1;stroke-dasharray:none"
         d="m 5.5290292,890.55791 c 2.6119597,-9.59844 7.0512198,-19.91418 12.1629128,-29.01267 l 53.734835,30.97411 c -2.445496,4.3734 -4.660484,9.9057 -5.772748,14.11244 z"
         id="path4187"
         inkscape:connector-curvature="0"
         sodipodi:nodetypes="ccccc" />
      <path
         style="fill:#7b3d36;fill-opacity:1;stroke:#5d2a24;stroke-width:2;stroke-linecap:butt;stroke-linejoin:bevel;stroke-miterlimit:4;stroke-opacity:1;stroke-dasharray:none"
         d="m 18.492417,860.08315 c 5.236116,-8.60683 11.668771,-17.29348 19.066942,-24.73614 l 44.125,43.9375 c -4.1525,4.30139 -7.124461,8.31713 -9.291053,11.79106 z"
         id="path4189"
         inkscape:connector-curvature="0"
         sodipodi:nodetypes="ccccc" />
      <path
         style="fill:#7b3d36;fill-opacity:1;stroke:#5d2a24;stroke-width:2;stroke-linecap:butt;stroke-linejoin:bevel;stroke-miterlimit:4;stroke-opacity:1;stroke-dasharray:none"
         d="m 38.771447,833.99162 c 7.498976,-6.73019 16.223455,-14.04684 25.203966,-19.29549 l 30.771446,54.03347 c -4.283279,2.67586 -8.514708,5.9662 -11.96783,9.14016 z"
         id="path4191"
         inkscape:connector-curvature="0"
         sodipodi:nodetypes="ccccc" />
      <path
         style="fill:#7b3d36;fill-opacity:1;stroke:#5d2a24;stroke-width:2;stroke-linecap:butt;stroke-linejoin:bevel;stroke-miterlimit:4;stroke-opacity:1;stroke-dasharray:none"
         d="m 65.404029,813.83315 c 8.728992,-4.55698 18.329255,-8.98882 28.879442,-11.89016 l 15.974109,60.10669 c -4.77308,1.27873 -9.61652,3.07693 -13.890163,5.6875 z"
         id="path4193"
         inkscape:connector-curvature="0"
         sodipodi:nodetypes="ccccc" />
      <path
         style="fill:#7b3d36;fill-opacity:1;stroke:#5d2a24;stroke-width:2;stroke-linecap:butt;stroke-linejoin:bevel;stroke-miterlimit:4;stroke-opacity:1;stroke-dasharray:none"
         d="m 96.003141,801.47646 c 9.808819,-2.36706 20.545869,-4.09274 31.019609,-4.13259 l 0.0915,62.36742 c -5.12512,0.0275 -10.45943,0.67174 -15.08525,1.86428 z"
         id="path4195"
         inkscape:connector-curvature="0"
         sodipodi:nodetypes="ccccc" />
      <path
         inkscape:connector-curvature="0"
         style="fill:#ac9393;fill-opacity:0.1254902;stroke:none"
         d="m 5.84375,893.61218 c -1.910257,9.27972 -3.408867,19.14574 -3.6875,28.78125 l 60.125,0.0312 c 0.164788,-4.10252 0.84679,-8.93378 1.78125,-13.5 L 5.84375,893.61218 z m 1.65625,1.9375 8.84375,5.21875 13.1875,1.15625 9.875,3.8125 22.8125,4.15625 -1.75,4.21875 0.875,6.28125 -11.9375,0 -6,-2.375 -10.4375,3 L 19.625,920.92468 8.5,918.70593 3.625,920.92468 6.4375,913.76843 5.75,906.42468 7.5,895.54968 z"
         id="path4197" />
      <path
         inkscape:connector-curvature="0"
         style="fill:#ac9393;fill-opacity:0.1254902;stroke:none"
         d="m 18.125,862.92468 c -4.708649,8.52422 -8.815747,18.0059 -11.34375,26.9375 L 65,905.39343 c 1.120021,-3.90098 3.010576,-8.49947 5.15625,-12.5 L 18.125,862.92468 z m 0.25,1.53125 5.0625,5.65625 8.46875,2.03125 9.03125,5.46875 5.90625,6.8125 5.21875,-0.625 15.46875,9.1875 -3.375,1.4375 -1.3125,6.09375 1.59375,3.1875 L 52.25,899.54968 35,891.58093 l -11.9375,0 -14.9375,-2.65625 3.53125,-5.375 1.6875,-9.375 5.03125,-9.71875 z"
         id="path4199" />
      <path
         inkscape:connector-curvature="0"
         style="fill:#ac9393;fill-opacity:0.1254902;stroke:none"
         d="m 37.59375,836.79968 c -6.791424,6.96467 -12.752645,14.94249 -17.6875,22.9375 l 52.1875,30 c 2.016284,-3.13682 4.682493,-6.64633 8.21875,-10.40625 L 37.59375,836.79968 z m 0.15625,2.09375 7.15625,7.4375 9,9.53125 3.625,6.28125 7.6875,6.46875 7.25,4.21875 5.9375,6.375 -6.46875,4.4375 -0.25,2.90625 -9.28125,-6.625 -16.09375,-7.09375 -6.90625,-8.65625 -9.71875,-0.78125 -3.09375,-3.09375 -4.9375,-1.0625 4.78125,-3.71875 2.5625,-6.09375 8.75,-10.53125 z"
         id="path4201" />
      <path
         inkscape:connector-curvature="0"
         style="fill:#ac9393;fill-opacity:0.1254902;stroke:none"
         d="m 63.625,816.11218 c -8.275403,4.96731 -16.314377,11.63536 -23.375,17.9375 l 42.59375,42.4375 c 3.13975,-2.817 6.81144,-5.62985 10.59375,-8.0625 L 63.625,816.11218 z m -0.34375,1.65625 2.5625,11.6875 5.21875,2.65625 7.0625,11.90625 0.28125,10.25 6,2.65625 7,10.71875 -2.9375,-0.8125 -2.5625,1.9375 L 83,874.17468 68.78125,858.70593 l -3.09375,-4.875 -10.625,-6.4375 -3.71875,-7.15625 -8.75,-6.375 9.1875,-2.90625 4.15625,-6.71875 7.34375,-6.46875 z"
         id="path4203" />
      <path
         inkscape:connector-curvature="0"
         style="fill:#ac9393;fill-opacity:0.1254902;stroke:none"
         d="m 93.59375,803.20593 c -9.708386,2.77337 -18.601137,6.83055 -26.78125,11.0625 l 29.96875,52.125 c 3.85658,-2.21892 8.05722,-3.81661 12.25,-5 l -15.4375,-58.1875 z m -0.875,1.5 3.4375,14.9375 2.3125,12 3.625,11.78125 5.03125,16.15625 -9.375,3.46875 -4.15625,-11.875 -9.71875,-10.9375 -4.40625,-11.15625 -11.40625,-14.75 8.40625,-2.03125 10.78125,-5.9375 5.46875,-1.65625 z"
         id="path4205" />
      <path
         inkscape:connector-curvature="0"
         style="fill:#ac9393;fill-opacity:0.1254902;stroke:none"
         d="m 126.03125,798.36218 c -9.71002,0.13591 -19.60502,1.71456 -28.78125,3.875 l 15.5,58.15625 c 4.19724,-0.99848 8.81101,-1.5336 13.375,-1.625 l -0.0937,-60.40625 z m -1.40625,1.03125 -1.40625,10.25 1.9375,7.59375 -2.5625,9.125 2.3125,11.84375 -0.0937,18.8125 -4.96875,-0.625 -5.46875,2.03125 -0.4375,-6.875 -5.21875,-17.40625 -3,-13.625 -0.0938,-7.34375 -6.1875,-10.25 10.34375,-1.0625 14.84375,-2.46875 z"
         id="path4207" />
    </g>
    <g
       transform="matrix(-1,0,0,-1,256.17491,1848.7695)"
       id="g4209">
      <path
         sodipodi:nodetypes="ccccc"
         inkscape:connector-curvature="0"
         id="path4211"
         d="m 1.0606602,923.40358 c 0.2039233,-10.40094 1.894843,-21.09305 3.9774756,-31.02431 l 60.1482702,15.82152 c -1.088672,5.10293 -1.919998,10.79728 -2.010834,15.22489 z"
         style="fill:#7b3d36;fill-opacity:1;stroke:#5d2a24;stroke-width:2;stroke-linecap:butt;stroke-linejoin:bevel;stroke-miterlimit:4;stroke-opacity:1;stroke-dasharray:none" />
      <path
         sodipodi:nodetypes="ccccc"
         inkscape:connector-curvature="0"
         id="path4213"
         d="m 5.5290292,890.55791 c 2.6119597,-9.59844 7.0512198,-19.91418 12.1629128,-29.01267 l 53.734835,30.97411 c -2.445496,4.3734 -4.660484,9.9057 -5.772748,14.11244 z"
         style="fill:#7b3d36;fill-opacity:1;stroke:#5d2a24;stroke-width:2;stroke-linecap:butt;stroke-linejoin:bevel;stroke-miterlimit:4;stroke-opacity:1;stroke-dasharray:none" />
      <path
         sodipodi:nodetypes="ccccc"
         inkscape:connector-curvature="0"
         id="path4215"
         d="m 18.492417,860.08315 c 5.236116,-8.60683 11.668771,-17.29348 19.066942,-24.73614 l 44.125,43.9375 c -4.1525,4.30139 -7.124461,8.31713 -9.291053,11.79106 z"
         style="fill:#7b3d36;fill-opacity:1;stroke:#5d2a24;stroke-width:2;stroke-linecap:butt;stroke-linejoin:bevel;stroke-miterlimit:4;stroke-opacity:1;stroke-dasharray:none" />
      <path
         sodipodi:nodetypes="ccccc"
         inkscape:connector-curvature="0"
         id="path4217"
         d="m 38.771447,833.99162 c 7.498976,-6.73019 16.223455,-14.04684 25.203966,-19.29549 l 30.771446,54.03347 c -4.283279,2.67586 -8.514708,5.9662 -11.96783,9.14016 z"
         style="fill:#7b3d36;fill-opacity:1;stroke:#5d2a24;stroke-width:2;stroke-linecap:butt;stroke-linejoin:bevel;stroke-miterlimit:4;stroke-opacity:1;stroke-dasharray:none" />
      <path
         sodipodi:nodetypes="ccccc"
         inkscape:connector-curvature="0"
         id="path4219"
         d="m 65.404029,813.83315 c 8.728992,-4.55698 18.329255,-8.98882 28.879442,-11.89016 l 15.974109,60.10669 c -4.77308,1.27873 -9.61652,3.07693 -13.890163,5.6875 z"
         style="fill:#7b3d36;fill-opacity:1;stroke:#5d2a24;stroke-width:2;stroke-linecap:butt;stroke-linejoin:bevel;stroke-miterlimit:4;stroke-opacity:1;stroke-dasharray:none" />
      <path
         sodipodi:nodetypes="ccccc"
         inkscape:connector-curvature="0"
         id="path4221"
         d="m 96.003141,801.47646 c 9.808819,-2.36706 20.545869,-4.09274 31.019609,-4.13259 l 0.0915,62.36742 c -5.12512,0.0275 -10.45943,0.67174 -15.08525,1.86428 z"
         style="fill:#7b3d36;fill-opacity:1;stroke:#5d2a24;stroke-width:2;stroke-linecap:butt;stroke-linejoin:bevel;stroke-miterlimit:4;stroke-opacity:1;stroke-dasharray:none" />
      <path
         id="path4223"
         d="m 5.84375,893.61218 c -1.910257,9.27972 -3.408867,19.14574 -3.6875,28.78125 l 60.125,0.0312 c 0.164788,-4.10252 0.84679,-8.93378 1.78125,-13.5 L 5.84375,893.61218 z m 1.65625,1.9375 8.84375,5.21875 13.1875,1.15625 9.875,3.8125 22.8125,4.15625 -1.75,4.21875 0.875,6.28125 -11.9375,0 -6,-2.375 -10.4375,3 L 19.625,920.92468 8.5,918.70593 3.625,920.92468 6.4375,913.76843 5.75,906.42468 7.5,895.54968 z"
         style="fill:#ac9393;fill-opacity:0.1254902;stroke:none"
         inkscape:connector-curvature="0" />
      <path
         id="path4225"
         d="m 18.125,862.92468 c -4.708649,8.52422 -8.815747,18.0059 -11.34375,26.9375 L 65,905.39343 c 1.120021,-3.90098 3.010576,-8.49947 5.15625,-12.5 L 18.125,862.92468 z m 0.25,1.53125 5.0625,5.65625 8.46875,2.03125 9.03125,5.46875 5.90625,6.8125 5.21875,-0.625 15.46875,9.1875 -3.375,1.4375 -1.3125,6.09375 1.59375,3.1875 L 52.25,899.54968 35,891.58093 l -11.9375,0 -14.9375,-2.65625 3.53125,-5.375 1.6875,-9.375 5.03125,-9.71875 z"
         style="fill:#ac9393;fill-opacity:0.1254902;stroke:none"
         inkscape:connector-curvature="0" />
      <path
         id="path4227"
         d="m 37.59375,836.79968 c -6.791424,6.96467 -12.752645,14.94249 -17.6875,22.9375 l 52.1875,30 c 2.016284,-3.13682 4.682493,-6.64633 8.21875,-10.40625 L 37.59375,836.79968 z m 0.15625,2.09375 7.15625,7.4375 9,9.53125 3.625,6.28125 7.6875,6.46875 7.25,4.21875 5.9375,6.375 -6.46875,4.4375 -0.25,2.90625 -9.28125,-6.625 -16.09375,-7.09375 -6.90625,-8.65625 -9.71875,-0.78125 -3.09375,-3.09375 -4.9375,-1.0625 4.78125,-3.71875 2.5625,-6.09375 8.75,-10.53125 z"
         style="fill:#ac9393;fill-opacity:0.1254902;stroke:none"
         inkscape:connector-curvature="0" />
      <path
         id="path4229"
         d="m 63.625,816.11218 c -8.275403,4.96731 -16.314377,11.63536 -23.375,17.9375 l 42.59375,42.4375 c 3.13975,-2.817 6.81144,-5.62985 10.59375,-8.0625 L 63.625,816.11218 z m -0.34375,1.65625 2.5625,11.6875 5.21875,2.65625 7.0625,11.90625 0.28125,10.25 6,2.65625 7,10.71875 -2.9375,-0.8125 -2.5625,1.9375 L 83,874.17468 68.78125,858.70593 l -3.09375,-4.875 -10.625,-6.4375 -3.71875,-7.15625 -8.75,-6.375 9.1875,-2.90625 4.15625,-6.71875 7.34375,-6.46875 z"
         style="fill:#ac9393;fill-opacity:0.1254902;stroke:none"
         inkscape:connector-curvature="0" />
      <path
         id="path4231"
         d="m 93.59375,803.20593 c -9.708386,2.77337 -18.601137,6.83055 -26.78125,11.0625 l 29.96875,52.125 c 3.85658,-2.21892 8.05722,-3.81661 12.25,-5 l -15.4375,-58.1875 z m -0.875,1.5 3.4375,14.9375 2.3125,12 3.625,11.78125 5.03125,16.15625 -9.375,3.46875 -4.15625,-11.875 -9.71875,-10.9375 -4.40625,-11.15625 -11.40625,-14.75 8.40625,-2.03125 10.78125,-5.9375 5.46875,-1.65625 z"
         style="fill:#ac9393;fill-opacity:0.1254902;stroke:none"
         inkscape:connector-curvature="0" />
      <path
         id="path4233"
         d="m 126.03125,798.36218 c -9.71002,0.13591 -19.60502,1.71456 -28.78125,3.875 l 15.5,58.15625 c 4.19724,-0.99848 8.81101,-1.5336 13.375,-1.625 l -0.0937,-60.40625 z m -1.40625,1.03125 -1.40625,10.25 1.9375,7.59375 -2.5625,9.125 2.3125,11.84375 -0.0937,18.8125 -4.96875,-0.625 -5.46875,2.03125 -0.4375,-6.875 -5.21875,-17.40625 -3,-13.625 -0.0938,-7.34375 -6.1875,-10.25 10.34375,-1.0625 14.84375,-2.46875 z"
         style="fill:#ac9393;fill-opacity:0.1254902;stroke:none"
         inkscape:connector-curvature="0" />
    </g>
    <g
       id="g4235"
       transform="matrix(0,1,-1,0,1052.4722,796.29727)">
      <path
         style="fill:#7b3d36;fill-opacity:1;stroke:#5d2a24;stroke-width:2;stroke-linecap:butt;stroke-linejoin:bevel;stroke-miterlimit:4;stroke-opacity:1;stroke-dasharray:none"
         d="m 1.0606602,923.40358 c 0.2039233,-10.40094 1.894843,-21.09305 3.9774756,-31.02431 l 60.1482702,15.82152 c -1.088672,5.10293 -1.919998,10.79728 -2.010834,15.22489 z"
         id="path4237"
         inkscape:connector-curvature="0"
         sodipodi:nodetypes="ccccc" />
      <path
         style="fill:#7b3d36;fill-opacity:1;stroke:#5d2a24;stroke-width:2;stroke-linecap:butt;stroke-linejoin:bevel;stroke-miterlimit:4;stroke-opacity:1;stroke-dasharray:none"
         d="m 5.5290292,890.55791 c 2.6119597,-9.59844 7.0512198,-19.91418 12.1629128,-29.01267 l 53.734835,30.97411 c -2.445496,4.3734 -4.660484,9.9057 -5.772748,14.11244 z"
         id="path4239"
         inkscape:connector-curvature="0"
         sodipodi:nodetypes="ccccc" />
      <path
         style="fill:#7b3d36;fill-opacity:1;stroke:#5d2a24;stroke-width:2;stroke-linecap:butt;stroke-linejoin:bevel;stroke-miterlimit:4;stroke-opacity:1;stroke-dasharray:none"
         d="m 18.492417,860.08315 c 5.236116,-8.60683 11.668771,-17.29348 19.066942,-24.73614 l 44.125,43.9375 c -4.1525,4.30139 -7.124461,8.31713 -9.291053,11.79106 z"
         id="path4241"
         inkscape:connector-curvature="0"
         sodipodi:nodetypes="ccccc" />
      <path
         style="fill:#7b3d36;fill-opacity:1;stroke:#5d2a24;stroke-width:2;stroke-linecap:butt;stroke-linejoin:bevel;stroke-miterlimit:4;stroke-opacity:1;stroke-dasharray:none"
         d="m 38.771447,833.99162 c 7.498976,-6.73019 16.223455,-14.04684 25.203966,-19.29549 l 30.771446,54.03347 c -4.283279,2.67586 -8.514708,5.9662 -11.96783,9.14016 z"
         id="path4243"
         inkscape:connector-curvature="0"
         sodipodi:nodetypes="ccccc" />
      <path
         style="fill:#7b3d36;fill-opacity:1;stroke:#5d2a24;stroke-width:2;stroke-linecap:butt;stroke-linejoin:bevel;stroke-miterlimit:4;stroke-opacity:1;stroke-dasharray:none"
         d="m 65.404029,813.83315 c 8.728992,-4.55698 18.329255,-8.98882 28.879442,-11.89016 l 15.974109,60.10669 c -4.77308,1.27873 -9.61652,3.07693 -13.890163,5.6875 z"
         id="path4245"
         inkscape:connector-curvature="0"
         sodipodi:nodetypes="ccccc" />
      <path
         style="fill:#7b3d36;fill-opacity:1;stroke:#5d2a24;stroke-width:2;stroke-linecap:butt;stroke-linejoin:bevel;stroke-miterlimit:4;stroke-opacity:1;stroke-dasharray:none"
         d="m 96.003141,801.47646 c 9.808819,-2.36706 20.545869,-4.09274 31.019609,-4.13259 l 0.0915,62.36742 c -5.12512,0.0275 -10.45943,0.67174 -15.08525,1.86428 z"
         id="path4247"
         inkscape:connector-curvature="0"
         sodipodi:nodetypes="ccccc" />
      <path
         inkscape:connector-curvature="0"
         style="fill:#ac9393;fill-opacity:0.1254902;stroke:none"
         d="m 5.84375,893.61218 c -1.910257,9.27972 -3.408867,19.14574 -3.6875,28.78125 l 60.125,0.0312 c 0.164788,-4.10252 0.84679,-8.93378 1.78125,-13.5 L 5.84375,893.61218 z m 1.65625,1.9375 8.84375,5.21875 13.1875,1.15625 9.875,3.8125 22.8125,4.15625 -1.75,4.21875 0.875,6.28125 -11.9375,0 -6,-2.375 -10.4375,3 L 19.625,920.92468 8.5,918.70593 3.625,920.92468 6.4375,913.76843 5.75,906.42468 7.5,895.54968 z"
         id="path4249" />
      <path
         inkscape:connector-curvature="0"
         style="fill:#ac9393;fill-opacity:0.1254902;stroke:none"
         d="m 18.125,862.92468 c -4.708649,8.52422 -8.815747,18.0059 -11.34375,26.9375 L 65,905.39343 c 1.120021,-3.90098 3.010576,-8.49947 5.15625,-12.5 L 18.125,862.92468 z m 0.25,1.53125 5.0625,5.65625 8.46875,2.03125 9.03125,5.46875 5.90625,6.8125 5.21875,-0.625 15.46875,9.1875 -3.375,1.4375 -1.3125,6.09375 1.59375,3.1875 L 52.25,899.54968 35,891.58093 l -11.9375,0 -14.9375,-2.65625 3.53125,-5.375 1.6875,-9.375 5.03125,-9.71875 z"
         id="path4251" />
      <path
         inkscape:connector-curvature="0"
         style="fill:#ac9393;fill-opacity:0.1254902;stroke:none"
         d="m 37.59375,836.79968 c -6.791424,6.96467 -12.752645,14.94249 -17.6875,22.9375 l 52.1875,30 c 2.016284,-3.13682 4.682493,-6.64633 8.21875,-10.40625 L 37.59375,836.79968 z m 0.15625,2.09375 7.15625,7.4375 9,9.53125 3.625,6.28125 7.6875,6.46875 7.25,4.21875 5.9375,6.375 -6.46875,4.4375 -0.25,2.90625 -9.28125,-6.625 -16.09375,-7.09375 -6.90625,-8.65625 -9.71875,-0.78125 -3.09375,-3.09375 -4.9375,-1.0625 4.78125,-3.71875 2.5625,-6.09375 8.75,-10.53125 z"
         id="path4253" />
      <path
         inkscape:connector-curvature="0"
         style="fill:#ac9393;fill-opacity:0.1254902;stroke:none"
         d="m 63.625,816.11218 c -8.275403,4.96731 -16.314377,11.63536 -23.375,17.9375 l 42.59375,42.4375 c 3.13975,-2.817 6.81144,-5.62985 10.59375,-8.0625 L 63.625,816.11218 z m -0.34375,1.65625 2.5625,11.6875 5.21875,2.65625 7.0625,11.90625 0.28125,10.25 6,2.65625 7,10.71875 -2.9375,-0.8125 -2.5625,1.9375 L 83,874.17468 68.78125,858.70593 l -3.09375,-4.875 -10.625,-6.4375 -3.71875,-7.15625 -8.75,-6.375 9.1875,-2.90625 4.15625,-6.71875 7.34375,-6.46875 z"
         id="path4255" />
      <path
         inkscape:connector-curvature="0"
         style="fill:#ac9393;fill-opacity:0.1254902;stroke:none"
         d="m 93.59375,803.20593 c -9.708386,2.77337 -18.601137,6.83055 -26.78125,11.0625 l 29.96875,52.125 c 3.85658,-2.21892 8.05722,-3.81661 12.25,-5 l -15.4375,-58.1875 z m -0.875,1.5 3.4375,14.9375 2.3125,12 3.625,11.78125 5.03125,16.15625 -9.375,3.46875 -4.15625,-11.875 -9.71875,-10.9375 -4.40625,-11.15625 -11.40625,-14.75 8.40625,-2.03125 10.78125,-5.9375 5.46875,-1.65625 z"
         id="path4257" />
      <path
         inkscape:connector-curvature="0"
         style="fill:#ac9393;fill-opacity:0.1254902;stroke:none"
         d="m 126.03125,798.36218 c -9.71002,0.13591 -19.60502,1.71456 -28.78125,3.875 l 15.5,58.15625 c 4.19724,-0.99848 8.81101,-1.5336 13.375,-1.625 l -0.0937,-60.40625 z m -1.40625,1.03125 -1.40625,10.25 1.9375,7.59375 -2.5625,9.125 2.3125,11.84375 -0.0937,18.8125 -4.96875,-0.625 -5.46875,2.03125 -0.4375,-6.875 -5.21875,-17.40625 -3,-13.625 -0.0938,-7.34375 -6.1875,-10.25 10.34375,-1.0625 14.84375,-2.46875 z"
         id="path4259" />
    </g>
  </g>
</svg>
