<?xml version="1.0" encoding="UTF-8" standalone="no"?>
<!-- Created with Inkscape (http://www.inkscape.org/) -->

<svg
   xmlns:dc="http://purl.org/dc/elements/1.1/"
   xmlns:cc="http://creativecommons.org/ns#"
   xmlns:rdf="http://www.w3.org/1999/02/22-rdf-syntax-ns#"
   xmlns:svg="http://www.w3.org/2000/svg"
   xmlns="http://www.w3.org/2000/svg"
   xmlns:sodipodi="http://sodipodi.sourceforge.net/DTD/sodipodi-0.dtd"
   xmlns:inkscape="http://www.inkscape.org/namespaces/inkscape"
   width="64"
   height="64"
   id="svg2"
   version="1.1"
   inkscape:version="0.48.2 r9819"
   sodipodi:docname="brick_circle_one.svg"
   inkscape:export-filename="C:\Users\Muffin\Documents\GitHub\Bolf\Assets\Art\LawnAtlas\brick_circle_one.png"
   inkscape:export-xdpi="90"
   inkscape:export-ydpi="90">
  <defs
     id="defs4" />
  <sodipodi:namedview
     id="base"
     pagecolor="#ffffff"
     bordercolor="#666666"
     borderopacity="1.0"
     inkscape:pageopacity="0.0"
     inkscape:pageshadow="2"
     inkscape:zoom="4"
     inkscape:cx="99.687602"
     inkscape:cy="58.898302"
     inkscape:document-units="px"
     inkscape:current-layer="layer1"
     showgrid="false"
     inkscape:window-width="1680"
     inkscape:window-height="988"
     inkscape:window-x="-8"
     inkscape:window-y="-8"
     inkscape:window-maximized="1"
     showguides="true"
     inkscape:guide-bbox="true" />
  <metadata
     id="metadata7">
    <rdf:RDF>
      <cc:Work
         rdf:about="">
        <dc:format>image/svg+xml</dc:format>
        <dc:type
           rdf:resource="http://purl.org/dc/dcmitype/StillImage" />
        <dc:title></dc:title>
      </cc:Work>
    </rdf:RDF>
  </metadata>
  <g
     inkscape:label="Layer 1"
     inkscape:groupmode="layer"
     id="layer1"
     transform="translate(0,-988.36218)">
    <path
       sodipodi:type="arc"
       style="fill:#7b3d36;fill-opacity:1;stroke:#5d2a24;stroke-width:1.66129029;stroke-miterlimit:4;stroke-opacity:1;stroke-dasharray:none"
       id="path2998"
       sodipodi:cx="30.25"
       sodipodi:cy="31.75"
       sodipodi:rx="25.75"
       sodipodi:ry="25.75"
       d="m 56,31.75 a 25.75,25.75 0 1 1 -51.5,0 25.75,25.75 0 1 1 51.5,0 z"
       transform="matrix(1.2038835,0,0,1.2038835,-4.4174757,982.13888)" />
    <path
       style="fill:#ac9393;fill-opacity:0.1254902;stroke:none"
       d="M 32 2.03125 C 15.419613 2.03125 2.03125 15.4196 2.03125 32 C 2.03125 48.5804 15.419613 61.96875 32 61.96875 C 48.580387 61.96875 61.96875 48.5804 61.96875 32 C 61.96875 15.4196 48.580387 2.03125 32 2.03125 z M 31.875 4.4375 L 42.9375 6.75 L 50.1875 13.6875 L 54.3125 15.4375 L 55.375 24.5625 L 59.3125 30 L 56.9375 41.6875 L 52 51.25 L 42.5 54.6875 L 40.125 58.375 L 30.4375 60.375 L 18.25 55.3125 L 17.375 50.125 L 9.5 48.4375 L 6.125 38.8125 L 6.1875 24.3125 L 11.25 22 L 16.0625 13.4375 L 16.9375 9.3125 L 24.6875 8.9375 L 31.875 4.4375 z "
       transform="translate(0,988.36218)"
       id="path3768" />
  </g>
</svg>
