<?xml version="1.0" encoding="UTF-8" standalone="no"?>
<!-- Created with Inkscape (http://www.inkscape.org/) -->

<svg
   xmlns:dc="http://purl.org/dc/elements/1.1/"
   xmlns:cc="http://creativecommons.org/ns#"
   xmlns:rdf="http://www.w3.org/1999/02/22-rdf-syntax-ns#"
   xmlns:svg="http://www.w3.org/2000/svg"
   xmlns="http://www.w3.org/2000/svg"
   xmlns:sodipodi="http://sodipodi.sourceforge.net/DTD/sodipodi-0.dtd"
   xmlns:inkscape="http://www.inkscape.org/namespaces/inkscape"
   width="96"
   height="96"
   id="svg2"
   version="1.1"
   inkscape:version="0.48.2 r9819"
   sodipodi:docname="brick_diagonal.svg"
   inkscape:export-filename="C:\Users\Muffin\Documents\GitHub\Bolf\Assets\Art\LawnAtlas\brick_diagonal.png"
   inkscape:export-xdpi="90"
   inkscape:export-ydpi="90">
  <defs
     id="defs4" />
  <sodipodi:namedview
     id="base"
     pagecolor="#ffffff"
     bordercolor="#666666"
     borderopacity="1.0"
     inkscape:pageopacity="0.0"
     inkscape:pageshadow="2"
     inkscape:zoom="5.7084141"
     inkscape:cx="102.08547"
     inkscape:cy="60.755009"
     inkscape:document-units="px"
     inkscape:current-layer="layer1"
     showgrid="false"
     inkscape:window-width="1680"
     inkscape:window-height="988"
     inkscape:window-x="-8"
     inkscape:window-y="-8"
     inkscape:window-maximized="1"
     showguides="true"
     inkscape:guide-bbox="true"
     borderlayer="true">
    <inkscape:grid
       type="xygrid"
       id="grid2998"
       empspacing="16"
       visible="true"
       enabled="true"
       snapvisiblegridlinesonly="true"
       spacingx="1px"
       spacingy="1px" />
  </sodipodi:namedview>
  <metadata
     id="metadata7">
    <rdf:RDF>
      <cc:Work
         rdf:about="">
        <dc:format>image/svg+xml</dc:format>
        <dc:type
           rdf:resource="http://purl.org/dc/dcmitype/StillImage" />
        <dc:title></dc:title>
      </cc:Work>
    </rdf:RDF>
  </metadata>
  <g
     inkscape:label="Layer 1"
     inkscape:groupmode="layer"
     id="layer1"
     transform="translate(0,-956.36218)">
    <path
       style="fill:#7b3d36;fill-opacity:1;stroke:#5d2a24;stroke-width:2;stroke-linecap:butt;stroke-linejoin:bevel;stroke-miterlimit:4;stroke-opacity:1;stroke-dasharray:none"
       d="m 1,1020.3622 15,-15 31,31 -15,15 z"
       id="path3851"
       inkscape:connector-curvature="0"
       sodipodi:nodetypes="ccccc" />
    <path
       sodipodi:nodetypes="ccccc"
       inkscape:connector-curvature="0"
       id="path3853"
       d="m 17,1004.3622 15,-15 31,31 -15,15 z"
       style="fill:#7b3d36;fill-opacity:1;stroke:#5d2a24;stroke-width:2;stroke-linecap:butt;stroke-linejoin:bevel;stroke-miterlimit:4;stroke-opacity:1;stroke-dasharray:none" />
    <path
       style="fill:#7b3d36;fill-opacity:1;stroke:#5d2a24;stroke-width:2;stroke-linecap:butt;stroke-linejoin:bevel;stroke-miterlimit:4;stroke-opacity:1;stroke-dasharray:none"
       d="m 33,988.3622 15,-15 31,31 -15,15 z"
       id="path3855"
       inkscape:connector-curvature="0"
       sodipodi:nodetypes="ccccc" />
    <path
       sodipodi:nodetypes="ccccc"
       inkscape:connector-curvature="0"
       id="path3857"
       d="m 49,972.3622 15,-15 31,31 -15,15 z"
       style="fill:#7b3d36;fill-opacity:1;stroke:#5d2a24;stroke-width:2;stroke-linecap:butt;stroke-linejoin:bevel;stroke-miterlimit:4;stroke-opacity:1;stroke-dasharray:none" />
    <path
       style="fill:#ac9393;fill-opacity:0.1254902;stroke:none"
       d="M 16,1006.7684 2.4375,1020.3622 32,1049.9247 45.5625,1036.3622 16,1006.7684 z m 0.09375,3 3.71875,6.7813 5.3125,2 7.625,7.75 1,3.625 4.125,4.0625 5.4375,2.3125 -5.0625,2.5 -4.0625,4.3125 -1.875,3.875 -6.9375,-6.6875 -1.125,-4.8125 -5.75,-1.8125 -4.9375,-4.8125 -0.8125,-4.4375 -5.5,-2.125 -2.4375,-2.125 4.5,-0.5625 1.0625,-4.75 5.71875,-5.0938 z"
       id="path3882"
       inkscape:connector-curvature="0" />
    <path
       style="fill:#ac9393;fill-opacity:0.1254902;stroke:none"
       d="M 32,990.76843 18.4375,1004.3622 48,1033.9247 61.5625,1020.3622 32,990.76843 z m -0.1875,2.34375 3.8125,7.12502 4.75,1.3125 6.875,7.125 0.5625,4.375 5.375,1.375 5.3125,5.375 -2.875,1.3125 -3,5.125 -4.5,4.3125 -6.0625,-5.9375 -4.5,-7.5 -6.8125,-6.1875 -4.75,-1.125 -5.25,-5.875 3.6875,-1.3125 5.5,-4.93752 1.875,-4.5625 z"
       id="path3891"
       inkscape:connector-curvature="0" />
    <path
       style="fill:#ac9393;fill-opacity:0.1254902;stroke:none"
       d="M 48,974.76843 34.4375,988.36218 64,1017.9247 77.5625,1004.3622 48,974.76843 z m 0.1875,3.28125 4.8125,7.75 4.25,1.125 7.625,7.8125 4.5625,6.68752 5.375,3.0625 -3.625,3 -6.5,2.9375 -1.75,3.3125 -4,-3.9375 -1.125,-5.1875 -5.6875,-1.1875 -5.9375,-5.43752 -1.8125,-4.8125 -3.375,-3.4375 -4.125,-1.1875 6.1875,-4.125 0.8125,-2.5625 4.3125,-3.8125 z"
       id="path3893"
       inkscape:connector-curvature="0" />
    <path
       style="fill:#ac9393;fill-opacity:0.1254902;stroke:none"
       d="M 64,958.76843 50.4375,972.36218 80,1001.9247 93.5625,988.36218 64,958.76843 z m 0.3125,2.71875 3.75,5.3125 7.875,5.6875 3.6875,7.4375 5.8125,2.625 5.375,6.25 -3.9375,4.625 -4.375,2.25 -3.125,3.375 -3.625,-5.625 -4.125,-6 -6.125,-2.1875 -6.4375,-6.6875 -2.3125,-5.0625 -4.3125,-1.25 6.4375,-3.1875 1.125,-3.6875 4.3125,-3.875 z"
       id="path3895"
       inkscape:connector-curvature="0" />
  </g>
</svg>
